<svg xmlns="http://www.w3.org/2000/svg" xmlns:xlink="http://www.w3.org/1999/xlink" id="Layer_1" x="0px" y="0px" viewBox="0 0 512.2 512.2" style="enable-background:new 0 0 512.2 512.2;" xml:space="preserve">
<style type="text/css">
	.st0{fill:#FFFFFF;}
	.st1{fill:#333C54;}
	.st2{fill:#E5C6A2;}
	.st3{fill:#A68B65;}
</style>
<rect x="-62.1" y="-29" class="st0" width="591.6" height="534.4"></rect>
<path class="st1" d="M257.7,11.5L257.7,11.5c-0.1-0.1-0.2-0.2-0.3-0.3c-0.2,0-0.3-0.1-0.5-0.1c-0.4,0.2-0.9,0.4-1.3,0.5  c-0.2,0.1-0.4,0.1-0.6,0.2c0,0,0,0,0,0v0.1L26.9,110.5v292.3L256.5,503l0-0.5l229.4-100.1V110.1L257.7,11.5z"></path>
<g>
	<g>
		<path class="st2" d="M237.4,240.3c0,0,0.1,0,0.1-0.1c0.1,0,0.1,0,0.2-0.1c0.1-0.1,0.2-0.1,0.4-0.2c-1.4,0.2-2.9,0.5-4.4,0.7    c0,0.1,0.1,0.2,0.1,0.4C235.1,241,236.3,240.9,237.4,240.3z"></path>
		<path class="st2" d="M270.2,243c-1.5-1-3.1-2.1-4.3-3.4c-0.4-0.4-0.8-0.9-1.1-1.3c-0.8-0.1-1.5-0.2-2.4-0.2c-4.7,0-9.5,0.7-14.2,1    c-1.3,0.1-2.6-0.1-3.9-0.2c-0.1,0-0.2,0-0.3,0c-0.7,1.2-1.5,2.2-2.4,3.1c-1.4,1.4-3.2,1.7-5,1.9c0.4,1,0.7,2.1,0.7,3.2    c3.3,3.5,8.3,5,14.5,4.1c8.3-1.3,16.6-3.3,24.9-5.1c-0.1-0.1-0.2-0.3-0.2-0.4C274.2,245.3,272.1,244.3,270.2,243z"></path>
		<path class="st3" d="M264.5,238c-0.8-0.8-1.5-1.6-2.2-2.5c-6,1-12.1,2.4-18.1,3.5c1.3,0.1,2.6,0.3,3.9,0.2c4.7-0.3,9.6-1,14.2-1    c0.8,0,1.6,0.1,2.4,0.2C264.7,238.2,264.6,238.1,264.5,238z"></path>
	</g>
	<g>
		<path class="st2" d="M231.4,265.1c0.1,0,0.3-0.1,0.4-0.2c0.3-0.1,0.6-0.3,0.9-0.5c0.1-0.1,0.5-0.4,0.2-0.2    c0.1-0.1,0.2-0.2,0.3-0.3c0.2-0.2,0.4-0.4,0.6-0.6c0.2-0.3,0.4-0.6,0.5-0.9c0,0,0,0,0,0c0-0.1,0-0.1,0.1-0.2c0,0,0-0.1,0-0.1    c-0.4-0.5-0.7-0.9-1.1-1.4h-0.8c-0.8,1.5-1.4,3-1.8,4.4c0,0,0,0,0,0C231.1,265.2,231.3,265.2,231.4,265.1z"></path>
		<path class="st2" d="M246.3,278c-1.9-2.2-3.4-4.8-5.1-7.1c-1.3-1.7-2.6-3.4-3.9-5c-0.2,0.2-0.4,0.5-0.7,0.7    c-1.3,1.2-2.9,2-4.6,2.3c-0.6,0.2-1.3,0.4-2,0.5c-0.5,5.2,1.1,10.1,5.2,14.6c4.8,5.4,10,10.5,15.1,15.8    C253.5,293.8,251.7,284.4,246.3,278z"></path>
		<path class="st2" d="M250.5,469.7c-5.5-5.8-11.2-11.3-16.3-17.4c-5.6-6.7-5.7-14.8-1.1-21.1c5,5.4,10,10.8,15.1,16.1    c0.2,1.2,0,2.6,0.6,3.6C251.7,457,253.7,463.1,250.5,469.7z"></path>
		<path class="st2" d="M251.1,422c-5.4-5.7-11-11.2-16.2-17.1c-6.1-7.1-6.7-15.2-1.6-22.6c4.3,5.3,8.4,10.4,12.5,15.5    c0.4,0.8,0.6,1.7,1.1,2.4C251.8,406.8,253.3,414,251.1,422z"></path>
		<path class="st2" d="M250.4,348.3c-5.5-5.8-11.2-11.3-16.3-17.4c-5.5-6.6-5.6-15-0.9-21.1c3.4,3.8,6.8,7.6,10.2,11.4    c0.5,1.2,0.9,2.5,1.6,3.6c1.8,3.1,4.1,5.9,5.4,9.2C252.4,338.7,253.3,343.6,250.4,348.3z"></path>
		<path class="st2" d="M250.2,445.1c-5.3-5.6-10.8-10.9-15.8-16.8c-5.7-6.8-6-14.8-1.2-21.6c3.3,3.7,6.5,7.2,9.7,10.8    c0.5,1.2,0.7,2.6,1.4,3.7c1.8,2.8,4.2,5.3,5.5,8.2C251.8,434.5,253.8,439.8,250.2,445.1z"></path>
		<path class="st2" d="M250.3,372.5c-5.4-5.7-11-11.1-16.1-17c-5.6-6.6-5.8-15.4-1-21.4c2.4,2.7,4.7,5.4,7.1,8.1    c0.5,1.1,0.8,2.3,1.5,3.3c2.8,4.3,6.2,8.2,8.5,12.7C252.5,362.6,253.6,367.7,250.3,372.5z"></path>
		<path class="st2" d="M250.5,396.9c-5.2-5.5-10.7-10.7-15.6-16.5c-6.1-7.1-6.6-15.5-1.7-22.2c2.7,3.1,5.4,6.1,8,9.1    c0.5,1,0.8,2.1,1.4,3c1.9,2.8,4.2,5.5,5.9,8.5C251.7,384.6,254.2,390.5,250.5,396.9z"></path>
		<path class="st2" d="M250.5,324.2c-5.3-5.6-10.8-11-15.9-16.8c-5.8-6.8-6.3-15.3-1.5-22c1.9,2.3,3.8,4.5,5.7,6.7    c2,2.9,4,5.8,6.1,8.6c4.8,6.3,8.2,13,7,21.3C251.5,322.7,251,323.5,250.5,324.2z"></path>
		<path class="st3" d="M255.7,306.3c0.7-2.8,1.8-5.5,3.4-7.9c-1.4-1.5-2.7-3.1-3.4-5c-0.6-1.6-0.7-3.3-0.7-5    c-0.2-0.2-0.4-0.4-0.3-0.7c0.1-0.6,0.2-1.2,0.3-1.9c0-0.1,0-0.1,0-0.2c-0.8-1.2-1.6-2.4-2.3-3.6l-11.5-11.1    c1.7,2.4,3.3,4.9,5.1,7.1c5.3,6.4,7.1,15.8,4,21.8C252,301.8,253.8,304,255.7,306.3z"></path>
		<path class="st3" d="M257.4,292.4c0.5,1.5,1.4,2.8,2.4,3.9c-0.1-1.5-0.5-3-1.2-4.6c-0.5-1.1-1.1-2.1-1.7-3.2    C257,289.9,257.1,291.2,257.4,292.4z"></path>
		<path class="st3" d="M257.8,389.1c0.4,1.6,1.1,3.1,2,4.5c-0.1-1.9-0.6-3.9-1.6-5.8c-0.3-0.5-0.5-1-0.8-1.5    C257.5,387.2,257.5,388.1,257.8,389.1z"></path>
		<path class="st3" d="M255.6,403.2c0.2-1.1,0.5-2.1,0.8-3.1c0.6-1.6,1.4-3.2,2.4-4.5c-1.2-1.8-2.3-3.6-2.8-5.7    c-0.4-1.8-0.4-3.8-0.7-5.6c-0.3-0.1-0.4-0.4-0.4-0.8c0-0.3,0-0.5,0-0.8c0-0.1-0.1-0.3-0.1-0.4c0-0.1,0-0.2,0-0.3    c-3.9-5.4-8.8-9.8-13.5-14.6c0.5,1,0.8,2.1,1.4,3c1.9,2.8,4.2,5.5,5.9,8.5c3.1,5.7,5.6,11.6,1.9,18.1    C252.1,399,253.8,401,255.6,403.2z"></path>
		<path class="st3" d="M257.2,365.4c0.5,1.9,1.4,3.5,2.6,4.9c0.2-3.2-0.9-6.4-3.4-9.8c0-0.1-0.1-0.1-0.1-0.2    C256.6,362.1,256.8,363.8,257.2,365.4z"></path>
		<path class="st3" d="M255.5,378.9c0.2-0.7,0.4-1.4,0.6-2c0.6-1.7,1.4-3.5,2.7-4.8c-1.6-1.7-2.8-3.6-3.5-5.9    c-0.8-2.7-0.9-5.5-1.3-8.3c0-0.1,0-0.2,0-0.2c-4.3-5.4-9.3-10.3-13.9-15.5c0.5,1.1,0.8,2.3,1.5,3.3c2.8,4.3,6.2,8.2,8.5,12.7    c2.2,4.5,3.3,9.5,0,14.3C252.1,374.6,253.8,376.7,255.5,378.9z"></path>
		<path class="st3" d="M255.7,451.8c1-2.5,1.9-5.3,3.4-7.6c-2.6-3.9-3.8-8.3-4.3-13c-3.7-4.7-7.9-9.1-11.8-13.6    c0.5,1.2,0.7,2.6,1.4,3.7c1.8,2.8,4.2,5.3,5.5,8.2c2.1,5,4.2,10.3,0.5,15.6C252,447.3,253.8,449.5,255.7,451.8z"></path>
		<path class="st3" d="M259.9,442.2c-0.1-2.5-0.9-4.9-2.6-7.4c-0.1-0.1-0.2-0.3-0.3-0.4C257.6,437.2,258.5,439.8,259.9,442.2z"></path>
		<path class="st3" d="M255.3,354.5c0.2-0.8,0.4-1.6,0.7-2.3c0.8-1.8,2-3.3,2.9-5c-2.5-3.4-4.2-7.6-4.2-11.9c-0.3-0.2-0.4-0.6-0.3-1    c0-0.2,0.1-0.5,0.1-0.7c-3.4-4.3-7.4-8.2-11.1-12.4c0.5,1.2,0.9,2.5,1.6,3.6c1.8,3.1,4.1,5.9,5.4,9.2c1.9,4.6,2.8,9.6-0.1,14.3    C252.1,350.4,253.7,352.4,255.3,354.5z"></path>
		<path class="st3" d="M256.7,336.4c0.3,3.1,1.4,6.1,3.2,8.7C259.8,342.3,258.7,339.4,256.7,336.4z"></path>
		<path class="st3" d="M257.9,414.3c0.5,1.4,1.2,2.6,2,3.7c-0.1-1.7-0.5-3.3-1.4-5c-0.4-0.9-0.9-1.7-1.5-2.5    C257.2,411.8,257.4,413.1,257.9,414.3z"></path>
		<path class="st3" d="M256.2,415.2c-1-2.6-1-5.4-1.4-8.2c-1.7-2.3-3.5-4.6-5.3-6.9c-0.8-1.1-2.4-1.6-3.7-2.4    c0.4,0.8,0.6,1.7,1.1,2.4c4.9,6.6,6.3,13.9,4.2,21.8c1.6,2,3.2,3.9,5,6.1c1.8-2.4,3.1-4.9,3.6-7.3    C258.3,419.1,257,417.3,256.2,415.2z"></path>
		<path class="st3" d="M259.9,466.1c-0.1-1.9-0.7-3.8-1.8-5.7c-0.2-0.3-0.4-0.7-0.6-1C258,461.7,258.7,464,259.9,466.1z"></path>
		<path class="st3" d="M255.8,475.9c0.6-2.8,1.5-5.4,3.1-7.8c-1.2-1.7-2.1-3.5-2.7-5.5c-0.7-2.4-1.1-4.8-1.7-7.3    c-2.1-2.7-4.4-5.3-6.4-8c0.2,1.2,0,2.6,0.6,3.6c3,6,5,12.1,1.8,18.8C252.2,471.7,254,473.8,255.8,475.9z"></path>
		<path class="st3" d="M259.8,321.1c0-3.3-1.3-6.5-3.3-9.4C256.5,315.1,257.7,318.4,259.8,321.1z"></path>
		<path class="st3" d="M255.8,322.2c-0.2,2.7-0.4,5.1-0.6,7.5c0.1,0.1,0.1,0.1,0.2,0.2c0.7-2.6,1.7-5.2,3.6-7    c-3.3-3.7-4.8-8.5-4.1-13.5c-0.1-0.1-0.1-0.2-0.2-0.2c-4.9-6-10.5-11.3-15.8-17c2,2.9,4,5.8,6.1,8.6c4.8,6.3,8.2,13,7,21.3    C253.2,322.1,254.4,322.1,255.8,322.2z"></path>
		<path class="st3" d="M257.7,328.5c-0.2,0.5-0.3,1-0.5,1.5c0.3-0.5,0.5-1.2,0.7-1.6c0.5-0.9,0.9-1.9,1.2-2.8    C258.5,326.5,258.1,327.5,257.7,328.5z"></path>
		<path class="st3" d="M252,322c1.2,0.1,2.4,0.1,3.8,0.2c-0.2,2.7-0.4,5.1-0.6,7.5c-1.5-1.8-3.1-3.6-4.6-5.4    C251,323.5,251.5,322.7,252,322z"></path>
		<path class="st2" d="M234.7,261.6c0-0.1,0.1-0.2,0.1-0.4c0-0.1,0-0.1,0-0.2c0,0,0,0,0-0.1c0-0.3,0-0.7,0-1c0,0,0-0.2,0-0.3    c-0.2-0.8-0.6-1.5-1.2-2.1c-0.6-0.6-1.2-0.8-2-1c-0.2-0.1-0.4-0.1-0.6-0.2c0.8,1.6,1.9,3.2,3.3,4.8    C234.4,261.3,234.6,261.5,234.7,261.6z"></path>
		<path class="st2" d="M245.4,255.2c-0.3-0.4-0.6-0.8-0.9-1.2c-2.5-0.3-4.9-1-6.9-2.5c-0.2,0.3-0.5,0.6-0.8,0.8    c-0.1,0.1-0.2,0.2-0.3,0.3c0.1,0.3,0.3,0.7,0.4,1c0.1,0.1,0.1,0.1,0.2,0.2c1.1,1.4,1.9,3,2.2,4.8c0.3,2.2-0.1,4.5-1.4,6.4    c3.8,4,7.7,8,11.5,12C252.5,271,250.7,261.7,245.4,255.2z"></path>
		<path class="st3" d="M253.8,262.4c-0.6-0.3-1.1-0.7-1.6-1.2c-1-0.6-2-1.4-2.9-2.2c-1.5-1.3-2.8-3-3.6-4.9c-0.4,0-0.8-0.1-1.2-0.1    c0.3,0.4,0.6,0.8,0.9,1.2c5.3,6.4,7.1,15.8,4,21.8c1.7,2.1,3.4,4.2,5.4,6.6c0-0.6,0.4-0.9,0.9-1c0.7-2.8,1.6-5.5,2.9-8    c-2.7-2.8-3.7-7-3.9-10.8C254.4,263.3,254.1,262.8,253.8,262.4z"></path>
		<path class="st2" d="M248.9,493c-5.3-5.6-10.8-11-15.9-16.8c-5.8-6.8-6.3-15.3-1.5-22c1.9,2.3,3.8,4.5,5.7,6.7    c2,2.9,4,5.8,6.1,8.6c4.8,6.3,8.2,13,7,21.3C249.9,491.5,249.4,492.3,248.9,493z"></path>
		<path class="st3" d="M254.2,491c-0.2,2.7-0.4,5.1-0.6,7.5c0.1,0.1,0.1,0.1,0.2,0.2c0.7-2.6,1.7-5.2,3.6-7    c-3.3-3.7-4.8-8.5-4.1-13.5c-0.1-0.1-0.1-0.2-0.2-0.2c-4.9-6-10.5-11.3-15.8-17c2,2.9,4,5.8,6.1,8.6c4.8,6.3,8.2,13,7,21.3    C251.6,490.8,252.8,490.9,254.2,491z"></path>
		<path class="st3" d="M250.4,490.8c1.2,0.1,2.4,0.1,3.8,0.2c-0.2,2.7-0.4,5.1-0.6,7.5c-1.5-1.8-3.1-3.6-4.6-5.4    C249.4,492.3,249.9,491.5,250.4,490.8z"></path>
		<path class="st2" d="M234.1,499.4c6.1,1,11.7,3.3,17.2,5.8c-1.5-4-4-7.6-6.9-11c-2.3-2.7-4.4-5.5-6.6-8.2c-2-2.1-4-4.2-6.1-6.3    c-4,6.3-3.6,13.7,1,19.8C233.1,499.3,233.6,499.3,234.1,499.4z"></path>
		<path class="st2" d="M234.1,499.4c5.4,0.9,10.4,2.8,15.4,5c-0.2-0.5-0.5-1.1-0.7-1.6c-2.2-4.5-5.7-8.5-8.5-12.7    c-0.7-1-1-2.2-1.5-3.3c-2.4-2.7-4.7-5.4-7.1-8.1c-4.7,5.9-4.6,14.3,0.6,20.9C232.8,499.3,233.4,499.2,234.1,499.4z"></path>
	</g>
	<g>
		<path class="st2" d="M261.7,494.1c-1.5-3.1-3.5-6-4.5-9.2c-1.4-4.7-0.6-9.3,2.6-14.1c3.6,4.3,7,8.3,10.4,12.4    c2.1,3.7,4.1,7.3,6.2,11C271.5,494.1,266.6,494.1,261.7,494.1z"></path>
		<path class="st3" d="M276.4,494.1c-2.1-3.7-4.1-7.3-6.2-11c3.3,3.7,6.7,7.3,10,11C279,494.1,277.7,494.1,276.4,494.1z"></path>
		<path class="st2" d="M277.2,436.8c-5.3-5.6-10.9-11-15.9-16.8c-5.8-6.8-6.1-14.7-1.5-21.8c3.8,4.4,7.5,8.7,11.2,13    c1.4,2.3,2.9,4.5,4.1,6.9C278,424.1,281.5,430.1,277.2,436.8z"></path>
		<path class="st2" d="M277.2,364.1c-5.5-5.8-11.3-11.3-16.3-17.5c-5.4-6.6-5.6-14.4-1.1-20.9c3.8,4,7.6,8.1,11.3,12.1    c0.1,0.7-0.1,1.5,0.3,2.1c2,3.6,4.3,7,6,10.6C279.5,355,279.6,359.6,277.2,364.1z"></path>
		<path class="st2" d="M272.6,268.3c-0.2-0.2-0.4-0.5-0.7-0.7c-0.8-0.9-1.6-1.8-2.4-2.7c0,0-0.1,0-0.1,0c-0.1,0-0.2-0.1-0.3-0.1    c-4.3,0.4-8.6,0-12.5-1.7c0.1,3.7,1.5,7.5,4.3,10.8c5.1,6.1,10.8,11.6,16.3,17.4c3-6.2,1.5-12-1.6-17.7    C274.6,271.9,273.6,270.1,272.6,268.3z"></path>
		<path class="st2" d="M277.3,339.9c-5.3-5.6-10.9-11-15.9-16.9c-4.6-5.3-6-11.6-3.5-18.4c0.4-1.1,1.1-2.2,1.9-3.7    c2.9,3.3,5.5,6.1,8,9c0.3,0.8,0.3,1.8,0.8,2.5c1.5,1.9,3.3,3.6,4.6,5.6C277.5,324.8,281,331.7,277.3,339.9z"></path>
		<path class="st2" d="M277,460.9c-5.3-5.6-10.9-10.9-15.8-16.8c-5.7-6.7-6-15-1.2-21.6c2.9,3.3,5.8,6.5,8.7,9.7    c0.3,1.2,0.2,2.7,0.9,3.7c1.3,1.8,3,3.2,4.6,4.8c1.1,2.1,2.6,4.1,3.3,6.4C278.9,451.7,280.2,456.4,277,460.9z"></path>
		<path class="st2" d="M277.3,412.7c-5.4-5.7-11-11.1-16.1-17.1c-5.7-6.7-6-14.9-1.2-21.7c1.9,2.3,3.8,4.5,5.7,6.7c1.3,2,2.7,4,4,6    c2.6,4,5.6,7.7,7.6,12C279.4,403.1,280,408,277.3,412.7z"></path>
		<path class="st2" d="M277.2,485.5c-5.4-5.7-11-11.1-16-17.1c-5.7-6.7-6-14.9-1.3-21.6c2.2,2.5,4.4,5,6.5,7.5    c0.6,1.1,1.1,2.3,1.8,3.3c2.6,3.7,5.5,7.1,7.8,11C279.2,473.8,280,479.6,277.2,485.5z"></path>
		<path class="st2" d="M277.1,315.5c-5.6-5.9-11.4-11.5-16.6-17.8c-5.2-6.3-5.2-14.1-0.7-20.8c3.5,3.9,7,7.8,10.4,11.6    c2.4,4.5,5.1,8.9,6.9,13.6C278.9,306.4,280.9,311,277.1,315.5z M264.9,297.8c-0.1,0.5-0.2,1-0.3,1.6c2.3,1.9,4.6,3.8,7.5,6.2    c0.9-3.8,2.7-6.9-0.2-8.6C270.3,296,267.3,297.4,264.9,297.8z"></path>
		<path class="st2" d="M266.4,377.2c-4.5-4.5-8.9-9.1-9.6-15.8c-0.4-4.1,0.2-7.9,3-11.8c2,2.4,3.9,4.6,5.8,6.7c1.3,2,2.6,4.1,4,6.1    c2,2.9,4,5.7,6.1,8.6c-1.5-0.9-3-1.9-4.4-2.7c-1.2,1.3-2.5,2.8-4,4.4c0.6,0.4,1.4,0.9,2.8,1.8    C268.6,375.6,267.5,376.4,266.4,377.2z"></path>
		<path class="st3" d="M277.3,412.7c2.7-4.7,2.1-9.6,0-14.1c-2-4.2-5-8-7.6-12c-1.3-2-2.7-4-4-6c5.8,6.4,12,12.4,17.2,19.2    c5.3,6.9,4.9,13.2-0.1,19.6C280.9,417.1,279.1,414.9,277.3,412.7z"></path>
		<path class="st3" d="M277.2,485.5c2.7-5.9,2-11.6-1.2-17c-2.3-3.8-5.2-7.3-7.8-11c-0.7-1-1.2-2.2-1.8-3.3    c5.5,6.1,11.5,11.9,16.4,18.4c5.2,6.8,4.9,13.1-0.1,19.6C280.9,489.9,279.1,487.7,277.2,485.5z"></path>
		<path class="st3" d="M277.3,339.9c3.7-8.2,0.2-15.2-4.1-21.9c-1.3-2-3.2-3.7-4.6-5.6c-0.5-0.7-0.6-1.6-0.8-2.5    c4.5,4.9,9.3,9.6,13.6,14.8c4,4.9,6.8,10.5,4.4,17.1c-0.6,1.6-1.6,3.1-2.7,5.1C280.8,344.3,279,342.1,277.3,339.9z"></path>
		<path class="st3" d="M277.2,364.1c2.4-4.5,2.3-9.1,0.2-13.6c-1.8-3.7-4.1-7.1-6-10.6c-0.3-0.6-0.2-1.4-0.3-2.1    c4.7,5.8,9.8,11.3,13.8,17.4c3.3,5.1,1.8,10.6-2,16C280.8,368.6,279,366.3,277.2,364.1z"></path>
		<path class="st3" d="M286.1,285.6c-1.5-5.1-4.2-9.3-7.6-13c-0.3-0.1-0.6-0.3-0.8-0.4c-0.8-0.3-1.6-0.7-2.4-1.3    c-0.4-0.3-0.8-0.7-1.2-1c-0.2-0.1-0.3-0.3-0.5-0.4c-0.1-0.1-0.3-0.3-0.4-0.4c-0.2-0.2-0.5-0.4-0.7-0.6c1,1.8,2,3.6,3,5.4    c3.1,5.6,4.6,11.5,1.6,17.7c1.8,2.3,3.6,4.5,5.6,6.9C286.2,294.2,287.4,290,286.1,285.6z"></path>
		<path class="st3" d="M277.1,315.5c3.8-4.4,1.8-9.1,0.1-13.3c-1.9-4.7-4.6-9.1-6.9-13.6c4.8,5.8,10.1,11.3,14.3,17.5    c3.6,5.3,2.3,11-1.7,16.6C280.8,320,279,317.7,277.1,315.5z"></path>
		<path class="st3" d="M277.2,436.8c4.3-6.8,0.8-12.8-2.1-18.7c-1.2-2.4-2.7-4.6-4.1-6.9c6.8,5.2,12.4,11.4,15,19.7    c1.4,4.5,0,8.8-3.2,12.9C280.9,441.3,279,439.1,277.2,436.8z"></path>
		<path class="st3" d="M277,460.9c3.2-4.5,1.9-9.2,0.4-13.8c-0.8-2.3-2.2-4.3-3.3-6.4c0.3-0.6,0.6-1.2,0.9-1.8    c3.4,4.5,7.3,8.7,10.1,13.5c3,5.1,1.7,10.4-2.2,15.7C280.8,465.5,278.9,463.2,277,460.9z"></path>
		<path class="st3" d="M275.7,371c-2-2.9-4.1-5.7-6.1-8.6c-1.4-2-2.6-4.1-4-6.1c4.7,5,9.7,9.8,14.1,15c2,2.3,3,5.4,4.5,8.2    c-0.3,0-0.5,0-0.8,0c-1.1-1-2.1-2-3.2-3.1c-1.6-1.5-3.1-3.1-4.7-4.6l0-0.4L275.7,371z"></path>
		<path class="st3" d="M275.7,371l0,0.4c0,0,0,0.4,0,0.4c-1.8,1.8-3.6,3.6-5.4,5.4c0.2,1.6,0.5,3.1,0.7,4.7    c-1.5-1.6-3.1-3.1-4.6-4.7c1.1-0.8,2.2-1.6,3.6-2.7c-1.3-0.8-2.2-1.4-2.8-1.8c1.5-1.6,2.8-3.1,4-4.4    C272.6,369.2,274.1,370.1,275.7,371z"></path>
		<path class="st3" d="M271,381.9c-0.2-1.6-0.5-3.1-0.7-4.7c1.6,0.5,3.1,1,4.7,1.6c1.3,2.1,2.6,4.2,3.8,6.3c-0.6,1-1.2,2-1.8,3.1    C275,386.1,273,384,271,381.9z"></path>
		<path class="st3" d="M277,388.1c0.6-1,1.2-2,1.8-3.1c0.3,0,0.5-0.1,0.8-0.1c0.8,1,1.5,2.1,2.3,3.1c1.3,0.5,2.6,1,3.9,1.5    c-0.7,1.8-1.4,3.6-2.4,6.2C280.8,392.8,278.9,390.5,277,388.1z"></path>
		<path class="st3" d="M281.8,388.1c-0.8-1-1.5-2.1-2.3-3.1c1.3-1.8,2.6-3.6,3.9-5.5c0.3,0,0.5,0,0.8,0c0.7,2.1,1.5,4.1,2.2,6.2    c-1.2-0.5-2.5-1-4.2-1.7C282.1,385.7,281.9,386.9,281.8,388.1z"></path>
		<path class="st3" d="M281.8,388.1c0.1-1.2,0.3-2.4,0.5-4.1c1.7,0.7,2.9,1.2,4.2,1.7c-0.3,1.3-0.5,2.6-0.8,3.9    C284.4,389.1,283.1,388.6,281.8,388.1z"></path>
		<path class="st3" d="M275,438.9c-0.3,0.6-0.6,1.2-0.9,1.8c-1.6-1.6-3.3-3-4.6-4.8c-0.7-0.9-0.6-2.4-0.9-3.7    C270.7,434.4,272.8,436.7,275,438.9z"></path>
		<path class="st2" d="M264.9,297.8c2.4-0.4,5.4-1.8,7.1-0.9c3,1.7,1.1,4.9,0.2,8.6c-2.9-2.4-5.2-4.3-7.5-6.2    C264.7,298.8,264.8,298.3,264.9,297.8z"></path>
		<path class="st3" d="M283.5,379.5c-1.3,1.8-2.6,3.6-3.9,5.5c-0.3,0-0.5,0.1-0.8,0.1c-1.3-2.1-2.6-4.2-3.8-6.3    c1.8-0.8,3.6-1.6,5.4-2.3C281.4,377.5,282.4,378.5,283.5,379.5z"></path>
		<path class="st3" d="M280.3,376.4c-1.8,0.8-3.6,1.6-5.4,2.3c-1.6-0.5-3.1-1-4.7-1.6c1.8-1.8,3.6-3.6,5.4-5.4    C277.2,373.4,278.8,374.9,280.3,376.4z"></path>
		<path class="st2" d="M276.7,388.3c-5.5-5.8-11.2-11.3-16.3-17.4c-5.6-6.7-5.7-14.8-1.1-21.1c5,5.4,10,10.8,15.1,16.1    c0.2,1.2,0,2.6,0.6,3.6C277.9,375.6,279.9,381.7,276.7,388.3z"></path>
		<path class="st3" d="M276.7,388.3c3.2-6.6,1.2-12.7-1.8-18.8c-0.5-1-0.4-2.4-0.6-3.6c3.3,4.3,7.2,8.4,9.9,13.1    c3.1,5.3,2.2,10.8-1.8,16.1C280.4,392.7,278.6,390.5,276.7,388.3z"></path>
		<path class="st3" d="M282.1,273.5c1.4,1.7,2.8,3.5,4.3,5.3c1.4-1.6,2.3-3.2,3-4.9C286.9,274,284.5,273.9,282.1,273.5z"></path>
		<path class="st2" d="M270.3,503.3c2.7-0.8,5.4-1.4,8.1-2c-0.2-2.9-1.2-5.6-2.8-8.3c-2.3-3.8-5.2-7.3-7.8-11    c-0.7-1-1.2-2.2-1.8-3.3c-2.1-2.5-4.3-4.9-6.5-7.5c-4.7,6.7-4.4,15,1.3,21.6C263.7,496.5,267,499.9,270.3,503.3z"></path>
		<path class="st3" d="M275.5,493c1.6,2.7,2.6,5.5,2.8,8.3c2-0.4,4-0.7,6-1c-0.6-1.1-1.2-2.1-2.1-3.2c-5-6.5-10.9-12.3-16.4-18.4    c0.6,1.1,1.1,2.3,1.8,3.3C270.2,485.7,273.2,489.1,275.5,493z"></path>
		<path class="st2" d="M260.8,506.2c2.2-0.8,4.5-1.5,6.8-2.2c-0.3-0.7-0.7-1.3-1-2c-2.1-2.5-4.3-4.9-6.5-7.5    c-2.6,3.7-3.6,7.8-3.2,11.8C258.2,506.3,259.5,506.3,260.8,506.2z"></path>
	</g>
	<g>
		<path class="st2" d="M213.6,160.8c-5.6-5.5-12.4-7.1-20.3-4.4c-6.9,2.4-13.6,5.2-20.4,7.8c4.3,5.2,13.6,7.2,21.6,4.7    c2.8-0.9,5.7-1.3,8.6-2c2.8-0.8,5.6-1.5,8.4-2.3C212.1,163.3,212.8,162,213.6,160.8z"></path>
		<path class="st2" d="M209.1,174c0.4-2.1,0.8-4.2,1.4-6.3c0-0.1,0.1-0.3,0.1-0.4c-5.4,2-10.8,4-16.1,6.1c3.4,4.7,8.6,5.2,13.7,6    C208.5,177.5,208.8,175.7,209.1,174z"></path>
		<path class="st3" d="M194.5,173.3c-1.8,0.4-3.7,0.7-5.5,1.1l-3.4,0.3c0,0,0,0,0,0.1c0.4,0.3,0.9,0.5,1.3,0.8    c2.3,1.7,3.9,4,5.3,6.4c4.5-1.3,9.9-1.3,13.9,1.2c0.4-0.1,0.8-0.2,1.1-0.2c0.2-0.6,0.5-1.1,0.7-1.7c0.1-0.7,0.1-1.3,0.2-2    C203.1,178.4,197.9,178,194.5,173.3z"></path>
		<path class="st3" d="M196.8,183.6c-0.5,0-0.9,0-1.4,0.1c1.8,0.4,3.7,0.5,5.5,0.3C199.5,183.7,198.1,183.6,196.8,183.6z"></path>
		<path class="st2" d="M59.9,117.7c7.3-2.8,14.6-5.9,22-8.3c8.9-2.9,16.6-0.3,21.5,7.2c-6.5,1.9-12.8,3.7-19.1,5.6    c-0.9,0-1.8-0.1-2.7,0.1C73.7,124.1,66.4,122.7,59.9,117.7z"></path>
		<path class="st2" d="M128.1,145.5c7.4-2.8,14.8-6,22.4-8.3c8.2-2.5,16,0.6,19.8,7.3c-4.9,1.7-9.7,3.4-14.5,5    c-1.3,0-2.6-0.1-3.9,0.1c-3.5,0.5-7.1,1.5-10.6,1.5C136.3,151,131.4,150,128.1,145.5z"></path>
		<path class="st2" d="M40.4,106.4c7.2-2.7,14.3-5.8,21.6-8.1c8.4-2.6,16,0.2,20.4,7.2c-4.6,1.6-9.2,3.2-13.7,4.7    c-1.3-0.1-2.7-0.3-3.9-0.1c-3.3,0.5-6.5,1.9-9.7,1.9C49.5,112,43.8,111.9,40.4,106.4z"></path>
		<path class="st2" d="M105.9,136.1c7.3-2.8,14.5-5.9,21.9-8.2c8.3-2.6,16.4,0.6,20.1,7.3c-3.4,1.1-6.8,2.3-10.2,3.4    c-1.2,0-2.4-0.1-3.6,0.1c-5,1-10,2.6-15,2.9C114.1,141.9,109,140.9,105.9,136.1z"></path>
		<path class="st2" d="M83.3,126.8c7.1-2.7,14-5.7,21.2-8c8.9-2.9,16.9-0.1,21.1,7c-3.9,1.3-7.7,2.6-11.5,3.9    c-1.1,0-2.3-0.1-3.3,0.2c-3.4,0.7-6.7,1.8-10.1,2.1C94.2,132.6,87.8,132.6,83.3,126.8z"></path>
		<path class="st2" d="M150.3,154.9c7.2-2.7,14.3-5.8,21.6-8.1c8.5-2.7,16.5,0.1,20.9,7.2c-2.9,0.9-5.6,1.8-8.4,2.7    c-3.4,0.8-6.9,1.4-10.3,2.3c-7.7,2-15.2,2.5-22.3-1.8C151.3,156.4,150.8,155.6,150.3,154.9z"></path>
		<path class="st3" d="M194.6,168.9c-8,2.4-17.3,0.5-21.6-4.7c-2.6,0.8-5.3,1.5-8.2,2.4c2.2,1.6,4.2,3.7,5.7,6.1    c0.1,0.2,0.1,0.3,0.1,0.5c3.2-0.5,6.4-0.9,9.7-0.4c1.4,0.2,2.7,0.6,4,1.2c1.4-0.3,2.8-0.5,4.2-0.8c4.9-2.1,9.8-4.2,14.7-6.3    C200.3,167.6,197.4,168.1,194.6,168.9z"></path>
		<path class="st3" d="M179.3,174.6c-1.8-0.2-3.6-0.2-5.4,0c1,0.2,2.1,0.3,3.2,0.3c0.9,0,1.9-0.1,2.8-0.2    C179.7,174.7,179.5,174.6,179.3,174.6z"></path>
		<path class="st3" d="M110.7,129.8c-3.4,0.7-6.7,1.8-10.1,2.1c-6.4,0.7-12.9,0.7-17.4-5.2c-2.6,0.8-5.2,1.5-8,2.4    c2.3,1.7,4.3,3.8,5.5,6.4c4.6-0.5,9.1-1.4,13.7,0.5c0.4,0.1,0.7,0.3,1,0.5c6.4-1.5,12.5-4.3,18.6-6.8    C113,129.7,111.8,129.6,110.7,129.8z"></path>
		<path class="st3" d="M84.1,137c1.5,0.4,3,0.5,4.7,0.4c1-0.1,2.1-0.2,3.1-0.3C89.3,136.5,86.7,136.7,84.1,137z"></path>
		<path class="st3" d="M134.2,138.7c-5,1-10,2.6-15,2.9c-5,0.3-10.1-0.6-13.2-5.5c-2.6,0.7-5.1,1.5-7.8,2.2c1.8,1.7,3.2,3.8,4.1,6.2    c4.9-1.1,11-1.1,15.7,0.9c6.7-1.9,13.2-4.6,19.8-6.9C136.5,138.6,135.3,138.5,134.2,138.7z"></path>
		<path class="st3" d="M104.8,146c2.7,1.1,5.9,1.3,9.7,0.4c0.1,0,0.2,0,0.3-0.1C111.6,145.5,108,145.5,104.8,146z"></path>
		<path class="st3" d="M38.5,118.2c2.1,0.7,4.5,0.8,7.1,0.2C43.3,117.9,40.9,118,38.5,118.2z"></path>
		<path class="st3" d="M36.8,115.2c4.4-0.5,9-1,13.2,0.7c0.2,0.1,0.4,0.2,0.5,0.2c6.1-1.6,12-4,18-5.9c-1.3-0.1-2.7-0.3-3.9-0.1    c-3.3,0.5-6.5,1.9-9.7,1.9c-5.4,0-11.1-0.1-14.6-5.6c-2.9,0.9-5.8,1.7-8.8,2.6C33,111.7,34.8,113.8,36.8,115.2z"></path>
		<path class="st3" d="M151.9,149.6c-3.5,0.5-7.1,1.5-10.6,1.5c-5-0.1-9.9-1.1-13.2-5.6c-2.2,0.6-4.5,1.3-6.8,2    c1.9,1.6,3.3,3.7,3.9,6.5c0,0.1,0,0.2,0,0.3c0,0,0.1,0,0.1,0.1c1.6-0.3,3.2-0.6,4.8-0.8c2.6-0.2,5.2,0.2,7.7,1.1    c0.5,0.2,1,0.4,1.4,0.6c5.6-1.5,11.1-3.8,16.6-5.7C154.5,149.6,153.2,149.5,151.9,149.6z"></path>
		<path class="st3" d="M128.9,155.6c-0.2,0-0.4,0.1-0.7,0.1c2.2,0.7,4.7,0.8,7.5,0.3C133.5,155.4,131.3,155.3,128.9,155.6z"></path>
		<path class="st3" d="M60.8,127.5c1.4,0.4,2.9,0.6,4.5,0.4c0.8-0.1,1.6-0.2,2.4-0.3C65.5,127.1,63.2,127.2,60.8,127.5z"></path>
		<path class="st3" d="M81.7,122.2c-8,1.9-15.2,0.5-21.7-4.5c-2.2,0.7-4.5,1.3-6.9,2c2.5,1.7,4.7,3.8,6.5,6.1    c3.7-0.6,7.5-0.7,11.1,0.8c0.3,0.1,0.5,0.2,0.8,0.4c3.1-0.7,6.2-1.6,9.2-2.4c1.3-0.3,2.4-1.6,3.7-2.4    C83.4,122.2,82.5,122,81.7,122.2z"></path>
		<path class="st3" d="M174.1,158.9c-7.7,2-15.2,2.5-22.3-1.8c-0.5,1.1-1,2.2-1.6,3.4c-2.4-1.3-4.5-2.4-6.6-3.5    c-0.2,0.1-0.4,0.2-0.6,0.3c2.2,1.5,4.1,3.4,5.1,5.8c4.7-1.1,9.5-0.4,13.7,1.7c0.3-0.1,0.6-0.2,0.9-0.3c7.4-2.2,14.5-5.3,21.8-8    C181,157.4,177.5,158,174.1,158.9z"></path>
		<path class="st3" d="M149.6,164.7c2.8,1.1,5.9,1.3,9,0.8C155.7,164.5,152.6,164.2,149.6,164.7z"></path>
		<path class="st3" d="M151.8,157.1c-0.5,1.1-1,2.2-1.6,3.4c-2.4-1.3-4.5-2.4-6.6-3.5c2.3-0.7,4.5-1.4,6.8-2.2    C150.8,155.6,151.3,156.4,151.8,157.1z"></path>
	</g>
	<g>
		<path class="st2" d="M-10.6,99.6c3.4-0.2,6.9-0.9,10.2-0.6c4.9,0.5,8.8,3.1,12,7.9c-5.3,1.7-10.4,3.2-15.4,4.8    c-4.2,0.5-8.3,1-12.5,1.4C-14.4,108.6-12.5,104.1-10.6,99.6z"></path>
		<path class="st3" d="M-16.3,113.1c4.2-0.5,8.3-1,12.5-1.4c-4.7,1.7-9.3,3.3-14,5C-17.3,115.5-16.8,114.3-16.3,113.1z"></path>
		<path class="st2" d="M36.1,135.9c7.2-2.7,14.3-5.8,21.7-8.1c8.5-2.7,16,0,20.7,7.1c-5.5,1.8-10.9,3.6-16.3,5.3    c-2.7,0.4-5.3,0.9-8,1.1C47.6,141.6,40.8,142.5,36.1,135.9z"></path>
		<path class="st2" d="M103.2,164.1c7.5-2.8,14.8-6,22.4-8.3c8.2-2.5,15.5,0.4,19.7,7.1c-5.2,1.9-10.4,3.9-15.5,5.8    c-0.7-0.2-1.4-0.6-2.1-0.6c-4.1,0.4-8.1,1.3-12.1,1.5C110.8,169.8,106.4,168.1,103.2,164.1z"></path>
		<path class="st2" d="M196.4,196.5c0.5-0.2,1.1-0.4,1.6-0.5c0.1-0.3,0.1-0.6,0.2-0.8c0.6-2,1.5-4,2.7-5.7c1.2-1.9,2.7-3.5,4.5-4.8    c-3.7-1.7-8.1-2-12.7-0.6c-7.6,2.3-14.9,5.5-22.4,8.3c4.6,5.2,10.5,6.1,16.9,5.3C190.3,197.3,193.3,196.9,196.4,196.5z"></path>
		<path class="st2" d="M125.5,173.5c7.2-2.7,14.4-5.7,21.7-8.1c6.7-2.2,13-1.1,18.3,3.9c0.9,0.8,1.6,1.9,2.7,3.2    c-4.1,1.4-7.7,2.7-11.4,3.9c-0.9-0.1-1.8-0.4-2.6-0.2c-2.4,0.6-4.6,1.7-7,2.1C139.4,179.6,131.6,180.1,125.5,173.5z"></path>
		<path class="st2" d="M14.1,126.4c7.2-2.7,14.3-5.8,21.6-8.1c8.4-2.6,16.2,0.3,20.4,7.2c-4.1,1.4-8.2,2.9-12.3,4.3    c-1.2-0.2-2.6-0.9-3.7-0.6c-2.1,0.5-4.2,1.6-6.2,2.4c-2.4,0.2-4.8,0.8-7.2,0.6C21.8,131.8,17,131.1,14.1,126.4z"></path>
		<path class="st2" d="M58.4,145.3c7.3-2.8,14.5-5.8,22-8.2c8.4-2.7,16.1,0.2,20.5,7.2c-2.9,0.9-5.6,1.8-8.4,2.6    c-2.4,0.5-4.7,0.9-7.1,1.4c-4.7,0.9-9.3,2.2-14,2.4C66.4,151,61.6,149.7,58.4,145.3z"></path>
		<path class="st2" d="M-8.7,117.2c7.3-2.8,14.5-5.8,21.9-8.2c8.4-2.6,16.1,0.2,20.5,7.2c-3.2,1.1-6.3,2.1-9.4,3.1    c-1.3,0.1-2.5,0.1-3.8,0.4c-4.4,1-8.7,2.3-13.1,3C1.2,123.5-4.4,122-8.7,117.2z"></path>
		<path class="st2" d="M148.1,182.9c7.6-2.8,15.1-6.1,22.8-8.4c7.8-2.3,15,0.7,19.4,7.4c-5,1.7-9.9,3.4-14.7,5.1    c-5.1,0.4-10.2,1.2-15.2,1.1C155.8,188,150.7,188.1,148.1,182.9z M169.1,178.4c-0.4-0.3-0.9-0.6-1.3-0.8c-2.6,1.4-5.3,2.8-8.6,4.6    c3.1,2.3,5.3,5.2,8.1,3.1C168.7,184.1,168.5,180.8,169.1,178.4z"></path>
		<path class="st2" d="M95.3,149c5.9-2.4,11.8-4.7,18.3-2.7c3.9,1.2,7.2,3.3,9.7,7.4c-3,1-5.7,1.8-8.4,2.7c-2.4,0.4-4.8,0.8-7.2,1.3    c-3.4,0.7-6.9,1.5-10.3,2.3c1.4-1,2.9-2.1,4.2-3c-0.7-1.6-1.6-3.4-2.5-5.4c-0.6,0.4-1.4,1-2.7,1.9C96,151.7,95.6,150.4,95.3,149z"></path>
		<path class="st3" d="M58.4,145.3c3.3,4.3,8,5.7,13,5.5c4.7-0.2,9.3-1.5,14-2.4c2.4-0.4,4.7-0.9,7.1-1.4    c-8.1,2.9-16.1,6.2-24.3,8.4c-8.4,2.2-14.1-0.6-18.1-7.6C52.9,147,55.6,146.1,58.4,145.3z"></path>
		<path class="st3" d="M-8.7,117.2c4.4,4.8,9.9,6.3,16.1,5.5c4.4-0.6,8.7-2,13.1-3c1.2-0.3,2.5-0.2,3.8-0.4c-7.8,2.7-15.4,6-23.3,8    c-8.3,2.2-14-0.6-18.1-7.7C-14.2,118.8-11.5,118-8.7,117.2z"></path>
		<path class="st3" d="M125.5,173.5c6.2,6.6,13.9,6.1,21.8,4.7c2.4-0.4,4.6-1.5,7-2.1c0.8-0.2,1.7,0.1,2.6,0.2    c-6.3,2.3-12.5,4.9-18.9,6.8c-6.1,1.8-12.3,2.2-17.5-2.6c-1.3-1.2-2.2-2.6-3.7-4.4C120.1,175.1,122.8,174.3,125.5,173.5z"></path>
		<path class="st3" d="M188.7,204.8c1.3-1.2,2.9-2,4.4-2.7c0.1,0,0.2-0.1,0.3-0.1c-0.1-0.1-0.2-0.2-0.3-0.4    c-2.9,0.8-5.8,1.7-8.7,2.5c0.6,1.3,1.3,2.5,2.2,3.5C187.2,206.5,187.8,205.6,188.7,204.8z"></path>
		<path class="st3" d="M103.2,164.1c3.2,4,7.5,5.7,12.5,5.4c4.1-0.2,8.1-1,12.1-1.5c0.7-0.1,1.4,0.4,2.1,0.6    c-7.1,2.1-14.2,4.7-21.4,6c-6,1.1-10.5-2.4-14-8C97.7,165.7,100.4,164.9,103.2,164.1z"></path>
		<path class="st3" d="M170.3,192.3c4.6,5.2,10.5,6.1,16.9,5.3c3.1-0.3,6.1-0.7,9.1-1.1c-7.5,4.2-15.4,7.2-24.2,6.2    c-4.6-0.5-8-3.3-10.4-8C164.8,193.9,167.5,193.1,170.3,192.3z"></path>
		<path class="st3" d="M148.1,182.9c2.6,5.2,7.7,5.1,12.3,5.2c5.1,0.1,10.2-0.7,15.2-1.1c-7.2,2.2-14.3,5-21.7,6.5    c-6.2,1.2-11.1-2.1-14.6-8C142.5,184.5,145.3,183.7,148.1,182.9z"></path>
		<path class="st3" d="M36.1,135.9c4.6,6.6,11.5,5.7,18.1,5.3c2.7-0.1,5.3-0.7,8-1.1c-7.4,4.3-15.3,7.1-24,6.2    c-4.7-0.4-8.1-3.4-10.6-7.9C30.6,137.6,33.4,136.8,36.1,135.9z"></path>
		<path class="st3" d="M14.1,126.4c2.9,4.7,7.7,5.3,12.6,5.7c2.4,0.2,4.8-0.4,7.2-0.6c0.4,0.5,0.9,1,1.3,1.5    c-5.4,1.4-10.8,3.4-16.3,4.1c-5.9,0.7-10.3-2.4-13.7-8.1C8.3,128.1,11.2,127.3,14.1,126.4z"></path>
		<path class="st3" d="M97.4,160c3.4-0.8,6.8-1.6,10.3-2.3c2.4-0.5,4.8-0.9,7.2-1.3c-6.4,2.5-12.8,5.1-19.3,7.2    c-2.9,0.9-6.2,0.7-9.3,1c0.1-0.2,0.2-0.5,0.3-0.7c1.3-0.6,2.7-1.1,4-1.7c2-0.8,4.1-1.7,6.1-2.5l0.3,0.2L97.4,160z"></path>
		<path class="st3" d="M97.4,160l-0.4-0.1c0,0-0.3-0.2-0.3-0.2c-1-2.4-1.9-4.7-2.9-7.1c-1.5-0.4-3.1-0.8-4.6-1.1    c2-0.8,4.1-1.6,6.1-2.4c0.3,1.3,0.7,2.6,1.1,4.4c1.3-0.9,2.1-1.5,2.7-1.9c0.9,2,1.7,3.8,2.5,5.4C100.3,157.9,98.9,158.9,97.4,160z    "></path>
		<path class="st3" d="M89.2,151.5c1.5,0.4,3.1,0.8,4.6,1.1c-1.1,1.2-2.2,2.5-3.3,3.7c-2.4,0.4-4.8,0.7-7.3,1.1    c-0.7-0.9-1.4-1.9-2.2-2.8C83.8,153.6,86.5,152.5,89.2,151.5z"></path>
		<path class="st3" d="M81.1,154.6c0.7,0.9,1.4,1.9,2.2,2.8c-0.1,0.2-0.1,0.5-0.2,0.7c-1.2,0.3-2.5,0.6-3.7,0.9c-1,1-1.9,2-2.9,3    c-1.4-1.4-2.8-2.7-4.8-4.7C75.4,156.3,78.3,155.5,81.1,154.6z"></path>
		<path class="st3" d="M79.3,159.1c1.2-0.3,2.5-0.6,3.7-0.9c1.2,1.9,2.3,3.8,3.5,5.7c-0.1,0.2-0.2,0.5-0.3,0.7    c-2.2-0.1-4.4-0.2-6.6-0.4c0.9-0.9,1.9-1.9,3.2-3.2C81.5,160.3,80.4,159.7,79.3,159.1z"></path>
		<path class="st3" d="M79.3,159.1c1.1,0.6,2.1,1.2,3.6,2c-1.3,1.3-2.3,2.2-3.2,3.2c-1.1-0.7-2.2-1.5-3.3-2.2    C77.4,161,78.4,160,79.3,159.1z"></path>
		<path class="st3" d="M35.1,133.1c-0.4-0.5-0.9-1-1.3-1.5c2.1-0.8,4.1-1.9,6.2-2.4c1.1-0.3,2.5,0.4,3.7,0.6    C40.9,130.9,38,132,35.1,133.1z"></path>
		<path class="st2" d="M169.1,178.4c-0.6,2.4-0.4,5.7-1.9,6.8c-2.7,2.1-4.9-0.9-8.1-3.1c3.4-1.8,6-3.2,8.6-4.6    C168.2,177.8,168.7,178.1,169.1,178.4z"></path>
		<path class="st3" d="M86.6,163.9c-1.2-1.9-2.3-3.8-3.5-5.7c0.1-0.2,0.1-0.5,0.2-0.7c2.4-0.4,4.8-0.7,7.3-1.1c0,2,0.1,3.9,0.1,5.9    C89.3,162.8,87.9,163.3,86.6,163.9z"></path>
		<path class="st3" d="M90.6,162.2c0-2-0.1-3.9-0.1-5.9c1.1-1.2,2.2-2.5,3.3-3.7c1,2.4,1.9,4.7,2.9,7.1    C94.7,160.5,92.7,161.3,90.6,162.2z"></path>
		<path class="st2" d="M81.1,154.3c7.4-2.8,14.7-6,22.3-8.3c8.3-2.5,15.8,0.5,19.9,7.1c-6.9,2.6-13.8,5.1-20.7,7.7    c-1.2-0.3-2.4-0.9-3.5-0.9C92.4,160.3,86,159.8,81.1,154.3z"></path>
		<path class="st3" d="M81.1,154.3c4.9,5.5,11.2,6,18,5.6c1.2-0.1,2.4,0.6,3.5,0.9c-5.3,1.4-10.5,3.4-15.9,4.1    c-6.1,0.8-10.8-2.2-14.1-7.8C75.6,156,78.4,155.2,81.1,154.3z"></path>
	</g>
	<g>
		<path class="st2" d="M468.5,110.6c3-6.6,5.8-13.4,9-19.9c4.1-8.4,11.1-12,20.4-11.1c0.1,0.2,0.2,0.5,0.3,0.7    c-2.1,3.6-4.2,7.3-6.3,10.9c-1.6,2.5-3.3,4.9-4.7,7.4C483.2,106,475.2,111.2,468.5,110.6z"></path>
		<path class="st2" d="M499,82.4c1.8,4.5,3.7,9.1,5.5,13.6c-4.3,3.1-8.5,6.7-14.4,5.7C493.1,95.3,496.1,88.9,499,82.4z"></path>
		<path class="st3" d="M504.5,96.1c-4.3,3.1-8.5,6.7-14.4,5.7c-1,1.5-2.1,3.1-3.1,4.6c-0.6,0.7-1.2,1.4-1.8,2.1    c2.8-0.6,5.7-0.5,8.7-0.4c1.2,0,1.1,1.9-0.1,1.9c-2.4-0.1-4.8-0.2-7.2,0.1c1.6,0.2,3.3,0.4,4.9,0.3c7.2-0.3,10.9-5.5,14.4-10.9    C505.5,98.5,505,97.3,504.5,96.1z"></path>
		<path class="st2" d="M321,152.9c-2.4,4.4-4.4,9-6.4,13.6c0.8,1.8,1.3,3.7,1.3,5.8c0,0.7-0.1,1.3-0.2,2c4.9-1.1,8.6-4.5,12-8.4    c0.8-0.9,2.1-1.3,3.1-1.9c3.1-6.7,6.2-13.3,9.3-20C332.5,142.1,325.1,145.2,321,152.9z"></path>
		<path class="st2" d="M355.5,157.2c3.2-7.1,6.2-14.4,9.8-21.4c4.2-8.3,11.6-11.9,20.3-10c-3.3,5.9-6.5,11.7-9.6,17.4    c-0.6,0.6-1.4,1.2-1.9,1.9C369.8,152.1,363.6,156.2,355.5,157.2z"></path>
		<path class="st2" d="M423.5,128.9c3.3-7.2,6.3-14.6,10-21.6c4-7.6,11.8-10.8,19.2-8.8c-2.3,4.6-4.5,9.2-6.7,13.8    c-0.9,0.9-2,1.8-2.8,2.8c-2.2,2.8-4,6-6.5,8.5C433.2,127.1,428.9,129.8,423.5,128.9z"></path>
		<path class="st2" d="M333.7,165c3.2-7,6-14.1,9.6-20.9c4.1-7.8,11.5-11.1,19.5-9.2c-2.2,4.4-4.3,8.7-6.4,13    c-1,0.9-2.1,1.6-2.9,2.7c-1.9,2.7-3.3,5.9-5.6,8.2C344.1,162.5,340,166.4,333.7,165z"></path>
		<path class="st2" d="M401.1,137.9c3.2-7.1,6.1-14.4,9.7-21.3c4-7.7,12-11.2,19.4-9c-1.6,3.2-3.2,6.4-4.8,9.6    c-0.8,0.9-1.8,1.6-2.5,2.6c-2.9,4.2-5.3,8.9-8.6,12.6C411,136.2,406.7,139.1,401.1,137.9z"></path>
		<path class="st2" d="M378.4,147.2c3.1-6.9,5.9-13.9,9.4-20.6c4.3-8.3,11.9-12,20-9.9c-1.8,3.7-3.6,7.3-5.4,10.9    c-0.8,0.8-1.6,1.6-2.3,2.5c-1.9,2.9-3.5,6-5.6,8.6C390.4,143.6,385.8,148.2,378.4,147.2z"></path>
		<path class="st2" d="M445.8,119.9c3.2-7,6.1-14.2,9.6-21c4.1-8,11.8-11.5,19.8-9.6c-1.4,2.7-2.7,5.2-4,7.8c-1.9,3-3.9,5.9-5.7,8.9    c-4.1,6.8-9,12.5-17.1,14.5C447.6,120.3,446.7,120.1,445.8,119.9z"></path>
		<path class="st2" d="M308,154.6c0.5,1.4,0.9,2.9,1.7,4.2c0.1,0.2,0.2,0.3,0.3,0.5c-0.1-2.5,0.3-4.6,3.6-5.1c-1.4-0.4-3-1.3-4.3-1    c-0.6,0.1-1.2,0.3-1.7,0.5C307.8,154,307.9,154.3,308,154.6z"></path>
		<path class="st3" d="M465.6,119c2.5,0.5,4.7,0.5,6.8,0C470.2,118.8,467.9,118.7,465.6,119z"></path>
		<path class="st3" d="M480.9,110.2c0.9-0.6,1.9-1,2.9-1.3c0.7-1,1.3-1.9,2-2.8c2-4.9,4-9.9,6-14.8c-1.6,2.5-3.3,4.9-4.7,7.4    c-4,7.4-12,12.6-18.7,11.9c-1.2,2.1-2.3,4.3-3.6,6.6c3.1-0.5,6.3-0.3,9.4,0.1C476,114.5,478.2,111.9,480.9,110.2z"></path>
		<path class="st3" d="M476.5,117.3c0.8-0.6,1.7-1.2,2.4-2c1-1,1.8-2.1,2.7-3.2C479.6,113.3,477.9,115.2,476.5,117.3z"></path>
		<path class="st3" d="M392.2,146.5c0.5-0.3,1.1-0.6,1.6-0.9c3.6-5.6,5.9-12,8.5-18.1c-0.8,0.8-1.6,1.6-2.3,2.5    c-1.9,2.9-3.5,6-5.6,8.6c-4.1,5-8.6,9.6-16,8.6c-1.4,2.5-2.8,5-4.3,7.8c3.3,0.8,6.2,0.9,8.8,0.2    C385.1,151.6,388.8,148.7,392.2,146.5z"></path>
		<path class="st3" d="M386.2,153.9c1.3-0.8,2.6-1.8,3.7-3c0.3-0.4,0.6-0.8,0.9-1.1C389.1,151,387.5,152.3,386.2,153.9z"></path>
		<path class="st3" d="M400.3,146c-0.7,0-1.3,0.1-2,0.1c2.3,0.5,4.4,0.5,6.3,0.2C403.2,146.2,401.8,146,400.3,146z"></path>
		<path class="st3" d="M416.1,135.6c0.2-0.1,0.3-0.1,0.5-0.1c3.2-5.9,5.9-12.2,8.9-18.2c-0.8,0.9-1.8,1.6-2.5,2.6    c-2.9,4.2-5.3,8.9-8.6,12.6c-3.3,3.7-7.6,6.6-13.2,5.4c-1.2,2.2-2.4,4.3-3.6,6.6c0.7-0.1,1.4-0.2,2.2-0.3c2.3-0.1,4.6,0.3,6.9,0.6    C408.7,140.9,412,137.2,416.1,135.6z"></path>
		<path class="st3" d="M408.6,145c2.2-1.2,4.1-3.1,5.8-5.9c0.2-0.3,0.3-0.6,0.5-0.8C412.3,139.9,410.2,142.4,408.6,145z"></path>
		<path class="st3" d="M339.4,171.4c1.7-3.1,4.9-5.6,7.9-7.2c0.4-0.2,0.7-0.4,1.1-0.5c2.9-5.1,5.3-10.5,8-15.8    c-1,0.9-2.1,1.6-2.9,2.7c-1.9,2.7-3.3,5.9-5.6,8.2c-3.9,3.8-8,7.7-14.3,6.3c-1.3,2.4-2.6,4.7-3.9,7.1c2.8-0.4,5.6-0.4,8.4,0.2    c0.1,0,0.2,0.1,0.3,0.1C338.8,172.1,339.1,171.7,339.4,171.4z"></path>
		<path class="st3" d="M341,172.4C340.9,172.5,340.9,172.5,341,172.4c1.6-0.8,3-2,4.3-3.8C343.7,169.7,342.2,171,341,172.4z"></path>
		<path class="st3" d="M423.3,136.4c-1.3,0-2.6,0-3.9,0.2c3.2,0.9,6.1,1.1,8.7,0.4C426.5,136.6,424.9,136.5,423.3,136.4z"></path>
		<path class="st3" d="M431.2,135.8c1.9-1.1,3.5-2.6,5.1-4.7C434.3,132.2,432.5,133.8,431.2,135.8z"></path>
		<path class="st3" d="M437.6,128.2c0.2-0.1,0.4-0.2,0.7-0.2c2.9-5,5.1-10.4,7.7-15.6c-0.9,0.9-2,1.8-2.8,2.8c-2.2,2.8-4,6-6.5,8.5    c-3.6,3.5-7.8,6.2-13.3,5.3c-1.1,1.9-2.1,3.8-3.2,5.8c0.9-0.1,1.9-0.1,2.8-0.1c2.1,0,4.2,0.3,6.2,0.9    C431.2,132.2,434,129.7,437.6,128.2z"></path>
		<path class="st3" d="M374.1,145.1c-4.3,7-10.5,11.1-18.6,12.1c-1,1.7-1.9,3.5-2.9,5.4c3.3-0.4,6.8,0.2,10.2,0.4    c0.3,0,0.5,0.2,0.7,0.4c1.1-0.7,2.2-1.5,3.2-2.7c3.3-4,5.9-8.7,8.5-13.2c0.7-1.2,0.6-2.9,0.9-4.3    C375.3,143.8,374.6,144.4,374.1,145.1z"></path>
		<path class="st3" d="M320.2,179.9c-0.2,0.3-0.4,0.7-0.6,1c1.1-0.7,2-1.7,2.9-2.8c0.4-0.5,0.8-1.1,1.2-1.7    C322.3,177.3,321.2,178.4,320.2,179.9z"></path>
		<path class="st3" d="M327.7,165.8c-3.5,3.9-7.2,7.3-12,8.4c-0.2,1.5-0.7,2.9-1.5,4.3c0.8,0.7,1.5,1.5,2.1,2.4    c2-3.1,4.8-5.7,8.3-7.2c0.4-0.2,0.7-0.3,1.1-0.4c1.8-3,3.4-6.2,5.2-9.3C329.8,164.6,328.5,165,327.7,165.8z"></path>
		<path class="st3" d="M459.6,118.9c0.6-0.3,1.2-0.6,1.8-0.8c3.7-6.8,6.6-14,9.8-21c-1.9,3-3.9,5.9-5.7,8.9    c-4.1,6.8-9,12.5-17.1,14.5c0.4,1.1,0.8,2.3,1.2,3.6c-2.6,0.8-4.9,1.5-7.2,2.2c-0.1,0.2-0.2,0.4-0.2,0.6c2.7-0.5,5.5-0.4,8.3,0.1    C452.7,123.5,456.1,120.7,459.6,118.9z"></path>
		<path class="st2" d="M311.8,161.8c3.5-1.9,3.9-3.2,1.9-7.6c-3.3,0.5-3.8,2.6-3.6,5.1C310.6,160.1,311.2,161,311.8,161.8z"></path>
		<path class="st3" d="M448.5,120.4c0.4,1.1,0.8,2.3,1.2,3.6c-2.6,0.8-4.9,1.5-7.2,2.2c1.1-2.1,2.2-4.2,3.3-6.3    C446.7,120.1,447.6,120.3,448.5,120.4z"></path>
		<path class="st2" d="M308,154.6c0.5,1.4,0.9,2.9,1.7,4.2c0.9,1.5,2,2.8,2.9,4.2c0.1,0.2,0.2,0.3,0.3,0.5c1.8-4,3.7-7.9,5.5-11.9    c-4-1-7.9-0.5-11.3,1.2C307.5,153.3,307.8,153.9,308,154.6z"></path>
	</g>
	<g>
		<path class="st2" d="M352.9,186.1c3.2-7,6.1-14.2,9.6-21c4.2-7.9,11.4-11.2,19.6-9.5c-2.6,5.2-5.2,10.2-7.8,15.3    c-1.6,2.1-3.1,4.4-4.9,6.4C365,182.1,360.8,187.6,352.9,186.1z"></path>
		<path class="st2" d="M420.4,158.8c3.3-7.3,6.3-14.7,10.1-21.7c4-7.5,11.3-10.6,19-8.9c-2.3,5-4.6,10-6.9,15    c-0.6,0.3-1.5,0.5-1.9,1c-2.6,3.2-4.9,6.6-7.6,9.6C429.7,157.6,425.4,159.4,420.4,158.8z"></path>
		<path class="st2" d="M442.8,149.8c3.2-7,6.1-14.2,9.7-21.1c3.2-6.2,8.5-9.9,15.7-10.2c1.2,0,2.4,0.2,4.1,0.4    c-1.9,3.9-3.6,7.4-5.3,10.8c-0.7,0.5-1.6,1-2,1.7c-1.2,2.1-2.1,4.4-3.5,6.4C456.9,144.3,451.8,150.2,442.8,149.8z"></path>
		<path class="st2" d="M330.6,195c3.2-7,6-14.2,9.6-21c4.1-7.8,11.7-11.2,19.5-9.2c-1.9,3.9-3.8,7.8-5.7,11.7    c-1.1,0.7-2.5,1.2-3.1,2.2c-1.2,1.9-1.9,4-2.7,6.1c-1.5,1.8-2.9,3.9-4.7,5.5C339.8,193.3,335.9,196.2,330.6,195z"></path>
		<path class="st2" d="M375.3,177.1c3.2-7.1,6.2-14.4,9.8-21.3c4.1-7.8,11.6-11.2,19.6-9.3c-1.4,2.7-2.7,5.2-4.1,7.8    c-1.4,2-2.7,4-4.1,6c-2.7,3.9-5.1,8.1-8.2,11.6C385,175.5,380.7,177.9,375.3,177.1z"></path>
		<path class="st2" d="M465.4,140.5c3.4-7.4,6.4-14.9,10.2-22c3.9-7.1,11.2-10.1,19-8.5c-2.3,4.7-4.6,9.4-6.8,14    c-3.3,3.9-6.3,8-10,11.5C474.5,138.7,470.9,142.4,465.4,140.5z M477.2,122.5c-0.5,0.1-1,0.2-1.5,0.3c-0.9,2.8-1.8,5.7-2.9,9.3    c3.8-0.6,7.4-0.1,7.9-3.5C480.9,126.9,478.4,124.6,477.2,122.5z"></path>
		<path class="st2" d="M404.1,153.7c2.5-5.8,5.1-11.6,11.1-14.8c3.6-1.9,7.4-2.7,12.1-1.6c-1.4,2.8-2.8,5.3-4.1,7.9    c-1.4,2-2.8,3.9-4.2,6c-1.9,2.9-3.8,5.9-5.7,8.9c0.3-1.8,0.6-3.5,0.8-5.1c-1.7-0.6-3.5-1.3-5.6-2.1c-0.1,0.7-0.3,1.7-0.6,3.2    C406.5,155.2,405.3,154.4,404.1,153.7z"></path>
		<path class="st3" d="M375.3,177.1c5.4,0.8,9.7-1.6,13.1-5.3c3.2-3.5,5.5-7.7,8.2-11.6c1.4-2,2.7-4,4.1-6    c-3.7,7.7-7,15.7-11.3,23.1c-4.4,7.5-10.4,9.5-18.2,7.3C372.6,182.2,374,179.6,375.3,177.1z"></path>
		<path class="st3" d="M330.4,185.6c-2.4,3.8-4.5,7.8-7.2,11.4c-0.9,1.2-1.9,2.3-3,3.2c-0.2,0.7-0.4,1.3-0.6,1.9    c-0.1,0.7-0.2,1.4-0.3,2.1c0,0,0,0,0,0c0.6,0.6,1.3,1.2,1.7,1.9c0,0,0,0.1,0,0.1c0.3-0.5,0.6-0.9,0.9-1.5    c4.2-7.1,7.3-14.7,10.9-22.1C332,183.7,331.1,184.6,330.4,185.6z"></path>
		<path class="st3" d="M442.8,149.8c9,0.3,14.2-5.5,18.8-12c1.4-2,2.2-4.3,3.5-6.4c0.4-0.7,1.3-1.1,2-1.7    c-2.8,6.1-5.4,12.3-8.6,18.1c-3,5.6-7.2,10.2-14.2,10.5c-1.7,0.1-3.4-0.3-5.8-0.5C440.1,154.7,441.4,152.3,442.8,149.8z"></path>
		<path class="st3" d="M420.4,158.8c5.1,0.6,9.3-1.3,12.7-4.9c2.7-3,5-6.4,7.6-9.6c0.4-0.5,1.2-0.7,1.9-1c-3.6,6.5-6.8,13.3-11,19.4    c-3.5,5-9.1,5.7-15.6,4.2C417.5,163.9,419,161.4,420.4,158.8z"></path>
		<path class="st3" d="M489.2,131.5c-0.5,0-0.9,0-1.4,0c-1.4,2.5-2.8,5.1-4.3,7.8c2,0.7,3.9,1,5.7,0.9    C489.1,137.3,489,134.4,489.2,131.5z"></path>
		<path class="st3" d="M465.4,140.5c5.5,1.9,9.1-1.8,12.4-4.9c3.7-3.5,6.7-7.7,10-11.5c-3.6,6.7-6.6,13.6-10.8,19.9    c-3.5,5.3-9.3,6.3-16,4.6C462.6,145.6,464,143.1,465.4,140.5z"></path>
		<path class="st3" d="M352.9,186.1c7.9,1.4,12.1-4.1,16.6-9c1.8-2,3.3-4.2,4.9-6.4c-2.3,8.3-5.9,15.8-12.6,21.4    c-3.7,3-8.1,3.3-13.1,1.8C350.1,191.2,351.5,188.7,352.9,186.1z"></path>
		<path class="st3" d="M330.6,195c5.4,1.3,9.3-1.7,12.9-4.8c1.8-1.5,3.1-3.6,4.7-5.5c0.7,0.1,1.3,0.1,2,0.2    c-2.9,4.8-5.3,10-8.7,14.4c-3.6,4.7-9,5.5-15.4,3.9C327.7,200.3,329.1,197.6,330.6,195z"></path>
		<path class="st3" d="M413.3,160c1.9-3,3.8-5.9,5.7-8.9c1.3-2,2.8-4,4.2-6c-2.8,6.3-5.4,12.6-8.6,18.7c-1.4,2.7-3.9,4.8-5.9,7.2    c-0.1-0.2-0.2-0.5-0.3-0.7c0.6-1.4,1.1-2.7,1.7-4.1c0.8-2,1.7-4,2.5-6.1l0.4-0.1L413.3,160z"></path>
		<path class="st3" d="M413.3,160l-0.4,0.2c0,0-0.4,0.1-0.4,0.1c-2.3-1-4.7-2-7-3c-1.4,0.8-2.7,1.6-4.1,2.4c0.9-2,1.8-4,2.6-6    c1.2,0.7,2.3,1.4,3.9,2.3c0.3-1.5,0.5-2.6,0.6-3.2c2,0.8,3.9,1.5,5.6,2.1C413.9,156.5,413.6,158.3,413.3,160z"></path>
		<path class="st3" d="M401.5,159.8c1.4-0.8,2.7-1.6,4.1-2.4c0.1,1.6,0.2,3.3,0.3,4.9c-1.5,2-2.9,3.9-4.4,5.9    c-1.2-0.2-2.3-0.3-3.5-0.5C399.2,165.1,400.3,162.4,401.5,159.8z"></path>
		<path class="st3" d="M398,167.7c1.2,0.2,2.3,0.3,3.5,0.5c0.1,0.2,0.2,0.4,0.4,0.7c-0.7,1.1-1.4,2.2-2,3.3c0,1.4,0,2.8,0,4.2    c-1.9,0-3.9,0-6.7,0.1C395.1,172.9,396.6,170.3,398,167.7z"></path>
		<path class="st3" d="M399.9,172.1c0.7-1.1,1.4-2.2,2-3.3c2.2,0.5,4.4,1.1,6.5,1.6c0.1,0.2,0.2,0.5,0.3,0.7    c-1.6,1.5-3.3,2.9-4.9,4.4c0-1.3,0-2.7,0-4.5C402.2,171.5,401,171.8,399.9,172.1z"></path>
		<path class="st3" d="M399.9,172.1c1.2-0.3,2.4-0.7,4-1.1c0,1.8,0,3.2,0,4.5c-1.3,0.2-2.6,0.5-3.9,0.7    C399.9,174.9,399.9,173.5,399.9,172.1z"></path>
		<path class="st3" d="M350.2,184.9c-0.7-0.1-1.3-0.1-2-0.2c0.9-2,1.6-4.2,2.7-6.1c0.6-1,2-1.5,3.1-2.2    C352.7,179.3,351.5,182.1,350.2,184.9z"></path>
		<path class="st2" d="M477.2,122.5c1.2,2.1,3.7,4.3,3.5,6.2c-0.5,3.4-4.1,2.9-7.9,3.5c1.1-3.6,2-6.5,2.9-9.3    C476.1,122.8,476.7,122.7,477.2,122.5z"></path>
		<path class="st3" d="M408.4,170.4c-2.2-0.5-4.4-1.1-6.5-1.6c-0.1-0.2-0.2-0.4-0.4-0.7c1.5-2,2.9-3.9,4.4-5.9    c1.4,1.4,2.8,2.7,4.2,4.1C409.5,167.7,409,169.1,408.4,170.4z"></path>
		<path class="st3" d="M410.1,166.4c-1.4-1.4-2.8-2.7-4.2-4.1c-0.1-1.6-0.2-3.3-0.3-4.9c2.3,1,4.7,2,7,3    C411.8,162.3,410.9,164.3,410.1,166.4z"></path>
		<path class="st2" d="M397.8,167.4c3.3-7.2,6.2-14.6,10-21.6c4.1-7.7,11.5-10.8,19.1-9c-3.1,6.7-6.2,13.3-9.3,20    c-1.1,0.6-2.4,1-3.1,1.9C410,163.8,405.1,167.9,397.8,167.4z"></path>
		<path class="st3" d="M397.8,167.4c7.3,0.5,12.2-3.6,16.7-8.7c0.8-0.9,2.1-1.3,3.1-1.9c-2.8,4.7-5.1,9.8-8.4,14.1    c-3.7,4.9-9.2,6.1-15.5,4.4C395.1,172.6,396.4,170,397.8,167.4z"></path>
		<path class="st2" d="M315.5,193.3c-0.2-1.1-0.5-2.1-1-3.1c0,3.3-0.4,6.6-1.7,9.5c0.5,0.5,0.9,1,1.3,1.6c0.3-1.9,1.1-3.8,1.2-5.7    C315.5,194.8,315.5,194,315.5,193.3z"></path>
		<path class="st2" d="M317.2,183.6c0,0.1-0.1,0.1-0.1,0.2c0.6,0.8,1,1.7,1.4,2.6c0.4,0.4,0.7,0.9,1,1.4c0.9,1.7,1.2,3.7,1.1,5.7    c0,0.5-0.1,0.9-0.1,1.4c0.2,1.7,0.1,3.4-0.2,5c1.3-1.3,2.6-2.7,3.8-4.1c1.8-2,3.3-4.2,4.9-6.4c2.6-5,5.2-10.1,7.8-15.3    C328.5,172.4,321.3,175.7,317.2,183.6z"></path>
	</g>
	<g>
		<path class="st2" d="M243.9,194c-4.3,0.5-7.8,2.6-10,6C237.7,200.9,241.7,197.4,243.9,194z"></path>
		<path class="st2" d="M244.3,209.6c0.1-3.2,0-6.5,0-9.7c0-1.2,0.1-2.4,0.3-3.5c-2.8,3.7-7.4,6.7-11.7,5.4c-1,2-1.6,4.3-1.8,6.9    c-0.7,8.4-0.6,17-0.8,25.5c6.5-1.2,10.4-5.4,12-11.7c1-3.7,1.4-7.7,2-11.6C244.3,210.4,244.3,210,244.3,209.6z"></path>
		<path class="st3" d="M243.9,227.9c-1.2-2.5-0.6-5.2-0.2-7.8c0.4-3.1,0.5-6.2,0.5-9.3c-0.6,3.9-1.1,7.8-2,11.6    c-1.6,6.3-5.5,10.6-12,11.7c-0.2,1.5-0.3,3-0.5,4.5c0,0.1,0.1,0.2,0.1,0.4c0.1,0.3,0.2,0.6,0.3,0.9c-0.2-0.7,0.1,0.1,0.2,0.3    c0.1,0.2,0.3,0.5,0.4,0.7c0.1,0.1,0.1,0.2,0.2,0.3c0,0,0,0,0,0c0.2,0.2,0.3,0.3,0.5,0.5c0.1,0.1,0.2,0.1,0.2,0.2    c0.2,0.1,0.4,0.3,0.6,0.4c0.1,0,0.2,0.1,0.3,0.1c0.5,0.2,1,0.3,1.6,0.4c0.1,0,0.3,0,0.4,0.1c0.3,0,0.5,0,0.8,0.1    c5-1.3,8.1-5,9-11.7c0.1-0.9,0.2-1.9,0.3-2.8C244.3,228.4,244.1,228.3,243.9,227.9z"></path>
	</g>
	<g>
		<path class="st2" d="M189.3,214.7c0.2,3,0.6,6,1.3,8.9c1.2,5.3,3.2,10.8,7.1,14.7c1.8,1.8,4.1,3.2,6.6,4l0.3-7.5l-0.8-3.8    c-1-0.5-1.8-1.3-2.2-2.5c-0.5-1.5-0.5-3.3-0.4-4.9c0-1.9,0.2-3.7,0.3-5.6c0.1-3.9,0-7.9,0.2-11.8c0.2-3.3,0.4-6.5,0.5-9.8l-6.1,5    l-3.5,3l-2.2,4.5l-1.1,5.2C189.2,214.3,189.3,214.5,189.3,214.7z"></path>
		<path class="st3" d="M207.6,242.8c0.1-0.1,0.2-0.2,0.2-0.2c0,0,0,0,0,0c0-0.1,0.1-0.1,0.1-0.2c0,0,0.1-0.1,0.1-0.1c0,0,0,0,0,0    c0-0.1,0.1-0.2,0.1-0.3c0-0.1,0.1-0.2,0.1-0.3c0,0,0,0,0,0c0-0.1,0-0.1,0-0.2c0-0.3,0-0.6,0-0.9l-1.6-4.2l-1.8-4.4l-0.1-0.5    c-0.7-0.2-1.3-0.5-1.9-0.9l0.7,6v2.7l-0.5,1.9l-0.7,0.6c0.6,0.3,1.3,0.5,2,0.7C205.3,242.6,206.6,243,207.6,242.8z"></path>
	</g>
	<g>
		<path class="st2" d="M251.8,181.6c-0.2,0-0.4,0-0.6,0c-1.8,1.8-3.1,4.2-3.9,7C248.7,186.2,250.2,183.9,251.8,181.6z"></path>
		<path class="st2" d="M257.9,206c0.9-3.4,1.3-7,1.9-10.6c-0.1-1.8-0.2-3.6-0.3-5.3c-0.1-1.7,0-3.5,0.9-5c0-0.1-0.1-0.3-0.1-0.4    c-0.1-0.3-0.2-0.5-0.2-0.8c0-0.1-0.1-0.5,0-0.1c0.1,0.3,0-0.1-0.1-0.2c-0.1-0.1-0.1-0.2-0.2-0.3c0,0,0,0,0,0    c-0.1-0.1-0.2-0.2-0.3-0.3c0,0-0.1-0.1-0.2-0.2c-0.1-0.1-0.2-0.1-0.2-0.1c-0.1-0.1-0.3-0.2-0.4-0.2c0,0-0.3-0.1-0.3-0.2    c-0.5-0.2-0.6-0.3-0.4-0.2c0,0-0.1,0-0.2-0.1c-0.4-0.2-0.8-0.3-1.3-0.4c-0.2-0.1-0.5-0.1-0.7-0.1c-0.2,0-0.2,0,0,0    c-0.1,0-0.2,0-0.2,0c-0.4,0-0.8,0-1.3,0c-3,3.9-5.5,8.1-7.6,12.6c-0.5,7.8-0.5,15.7-0.7,23.5C252.4,216.6,256.2,212.3,257.9,206z"></path>
		<path class="st3" d="M246.4,224.6c0.1,0.1,0.1,0.2,0.2,0.3c0,0,0,0,0,0c0.2,0.2,0.3,0.3,0.5,0.5c0.1,0.1,0.2,0.1,0.2,0.2    c0.2,0.1,0.4,0.3,0.6,0.4c0.1,0,0.2,0.1,0.3,0.1c0.3,0.1,0.6,0.2,0.9,0.3c3,0.1,5.9-3.1,7.3-5.4c2.1-3.5,3.1-7.5,3.4-11.5    c0.4-4.4,0.2-8.7,0-13.1c0-0.3,0-0.6,0-0.9c-0.5,3.6-1,7.2-1.9,10.6c-1.6,6.3-5.5,10.6-12,11.7c-0.2,1.5-0.3,3-0.5,4.5    c0,0.1,0.1,0.2,0.1,0.4c0.1,0.3,0.2,0.6,0.3,0.9c-0.2-0.7,0.1,0.1,0.2,0.3C246.1,224.1,246.3,224.3,246.4,224.6z"></path>
	</g>
	<g>
		<path class="st2" d="M229.2,241.1c-1.7-3.2-1.8-7.3-1.7-10.9c0.2-4.1,0.7-8.1,1-12.1c0.3-3,0.5-6,0.9-8.9    c-0.8,1.2-1.7,2.3-2.8,3.3c-1.7,1.6-3.8,2.6-6,2.8c-0.3,0.9-0.6,1.9-0.9,2.8c-2.2,8.1-2.9,16.3-1.8,24.6c0.5,1.9,1.5,3.7,2.9,5.3    c4-1.3,6.9-3.4,8.8-6.1C229.5,241.6,229.4,241.4,229.2,241.1z"></path>
		<path class="st2" d="M225.6,210.9c1.2-1.1,2.1-2.4,3-3.8c-0.7,0.2-1.4,0.3-2,0.5c-1.3,0.7-2.5,1.6-3.5,2.9    c-0.6,0.8-1.1,1.7-1.6,2.7C223.1,212.8,224.4,212,225.6,210.9z"></path>
		<path class="st3" d="M234.9,244.6c-2.1-0.2-4-1-5.2-2.8c-1.9,2.7-4.8,4.8-8.8,6.1c0.5,0.6,1.1,1.2,1.7,1.7c0.9,0.8,1.9,1.4,3,1.9    c0.1,0,0.2,0.1,0.2,0.1c0.2,0.1,0.5,0.2,0.7,0.3c0.5,0.2,0.9,0.3,1.4,0.4c0.4,0.1,0.7,0.2,1,0.3c1-0.1,1.9-0.2,2.8-0.5    c0.9-0.3,1.6-0.7,2.2-1.3c0.6-0.6,1-1.4,1.2-2.3c0.2-0.8,0.3-1.5,0.3-2.3c-0.1-0.1-0.1-0.2-0.2-0.3    C235.2,245.5,235.1,245,234.9,244.6z"></path>
	</g>
	<g>
		<path class="st2" d="M212,212.5c-1.6-2.5-0.7-5.7,0.2-8.2c1.1-3,2.8-5.7,3.7-8.7c0.7-2.1,0.9-4.3,1.6-6.4c0.7-2.2,1.7-4.3,2.2-6.5    c0.1-1.1,0.1-2.2,0.2-3.3c-8.9-0.3-15,5.3-15.7,15c-0.6,8.6-0.4,17.5-0.6,26.2c4.5-0.8,7.7-3,9.8-6.4    C212.9,213.7,212.4,213.2,212,212.5z"></path>
		<path class="st2" d="M217,202.5c-0.1,0.3-0.2,0.6-0.3,0.9c-0.4,1.2-0.8,2.3-1.3,3.5c-0.4,0.9-1,2.1-0.6,3.1    c0.1,0.3,0.3,0.5,0.5,0.7c0.2-0.7,0.4-1.3,0.6-2C216.3,206.6,216.7,204.6,217,202.5z"></path>
		<path class="st3" d="M217,209.6c-0.1-2.8,0.1-5.6,0.5-8.4c-0.2,0.4-0.3,0.9-0.5,1.3c-0.3,2.1-0.6,4.1-1.1,6.1    c-0.2,0.7-0.4,1.4-0.6,2c0.5,0.6,1.2,0.9,2,1.2C217.1,211,217,210.2,217,209.6z"></path>
		<path class="st3" d="M213.5,214.1c-2.1,3.4-5.3,5.6-9.8,6.4c-0.2,2-0.4,4.1-0.6,6.2c0.1,0.2,0.3,0.4,0.4,0.6    c0.1,0.1,0.1,0.1,0.2,0.2c0,0,0,0,0,0c0.2,0.2,0.3,0.4,0.5,0.5c0.2,0.2,0.3,0.3,0.5,0.5c0,0,0.1,0.1,0.2,0.1c0,0,0,0,0,0    c0.2,0.1,0.4,0.3,0.6,0.4c0,0,0.1,0,0.1,0c0,0,0.1,0,0.1,0.1c0.2,0.1,0.4,0.1,0.6,0.2c0,0,0.1,0,0.1,0c0,0,0.1,0,0.2,0    c0.2,0,0.5,0,0.7,0c0.1,0,0.3,0,0.4,0c0.6-0.1,1.2-0.3,1.7-0.5c0.5-0.2,1-0.1,1.5,0.1c4-1.7,6.3-5.3,7.1-11.3    c0.1-0.7,0.1-1.4,0.2-2.1C216.6,215.7,214.9,215.1,213.5,214.1z"></path>
	</g>
	<g>
		<path class="st2" d="M231.6,189.8c2.8-5,5.4-10.2,9-14.6c0.5-1.4,1.1-2.9,1.6-4.4c-8.5-2.8-15.8,0.5-19.2,9.1    c-3,7.7-5.2,15.8-7.8,23.8c5.8,0.8,10.3-1.2,13.5-5.3C228.5,195.6,230.4,191.9,231.6,189.8z"></path>
		<path class="st3" d="M230.9,195.7c-0.3,0.9-0.6,2.2-0.2,3.1c0,0,0,0,0,0c0.1-0.5,0.2-0.9,0.3-1.4c0.8-2.9,2-5.8,3.3-8.5    C233,191.1,231.6,193.3,230.9,195.7z"></path>
		<path class="st3" d="M228.7,198.3c-3.2,4.1-7.7,6.1-13.5,5.3c-0.7,1.8-1.5,3.6-2.3,5.5c0.1,0.2,0.1,0.5,0.2,0.7    c0,0.1,0.1,0.2,0.1,0.3c0,0,0,0,0,0c0.1,0.2,0.2,0.4,0.3,0.6c0.1,0.2,0.2,0.4,0.3,0.6c0,0,0.1,0.1,0.1,0.2c0,0,0,0,0,0    c0.2,0.2,0.3,0.4,0.5,0.5c0,0,0,0,0.1,0.1c0,0,0.1,0,0.1,0.1c0.2,0.1,0.4,0.2,0.6,0.4c0,0,0.1,0,0.1,0c0,0,0.1,0,0.1,0.1    c0.2,0.1,0.5,0.2,0.7,0.2c0.1,0,0.2,0.1,0.4,0.1c0.6,0.1,1.2,0.1,1.8,0.1c0.5,0,1,0.2,1.4,0.5c4.3-0.4,7.6-3,9.9-8.3    c0.5-1.1,1-2.3,1.5-3.5c-0.1-0.1-0.1-0.2-0.2-0.3C229.5,200.9,228.9,199.7,228.7,198.3z"></path>
	</g>
	<g>
		<path class="st2" d="M252.9,171.3c0.6,0,1.3,0,1.9-0.1c-1.7-0.4-3.5-0.4-5.1-0.1C250.7,171.3,251.8,171.3,252.9,171.3z"></path>
		<path class="st2" d="M252.2,174.4c-1.1,0-2.4-0.1-3.5-0.4c-1.2-0.1-2.3-0.3-3.4-0.8c-1.3,0.9-2.4,2-3.4,3.5    c-3.5,5.1-6.4,10.5-9.6,15.8c5,1.4,9.1-0.1,12.5-3.6c2.4-2.5,4.4-5.4,6.7-8.1c0.6-0.8,1.4-1.3,2.2-2c1.1-1.6,2.1-3.2,3.2-4.8    C255.3,174.2,253.7,174.4,252.2,174.4z"></path>
		<path class="st3" d="M251.5,180.8c-2.2,2.7-4.3,5.6-6.7,8.1c-3.4,3.5-7.5,4.9-12.5,3.6c-0.6,0.9-1.3,1.8-1.9,2.7    c0,0.1,0,0.2-0.1,0.3c0,0.2-0.1,0.5-0.1,0.7c0.1-0.5,0,0.1,0,0.2c0,0.2,0,0.4,0,0.6c0,0.1,0,0.2,0,0.2c0,0,0,0,0,0    c0,0.2,0.1,0.3,0.2,0.5c0,0.1,0.1,0.1,0.1,0.2c0.1,0.2,0.2,0.3,0.3,0.5c0,0.1,0.1,0.1,0.1,0.2c0.3,0.3,0.6,0.5,0.9,0.8    c0.1,0.1,0.2,0.1,0.2,0.2c0.2,0.1,0.3,0.2,0.5,0.3c4,0.8,7.4-0.6,10.4-4.5c3.9-5.1,7.1-10.9,10.6-16.4    C252.9,179.5,252.1,180.1,251.5,180.8z"></path>
	</g>
	<g>
		<path class="st2" d="M285.1,214.5c-2.9,1.2-5.9,2.4-8.8,3.6c-0.6,0.4-1.2,0.8-1.8,1.1c-1.8,0.9-3.7,1.6-5.7,2.2    c-0.4,0.1-0.7,0.2-1.1,0.3c-1.3,0.6-2.6,1.2-3.8,1.8c-3.8,1.9-6.4,4.5-7.7,7.7c1,0.2,2,0.4,3,0.5c1.2,0.1,2.4,0.1,3.6,0.2    c1.9,0,3.8,0,5.7-0.2c2.8-0.3,5.7-0.8,8.5-1.5c0.6-0.4,1.3-0.8,1.9-1.3C283.7,225.4,286.1,220.7,285.1,214.5z"></path>
		<path class="st3" d="M277.1,230.2c5.4-1.4,10.7-3.5,15.2-6.9c1.4-2.1,2-4.5,1.8-7.1c-0.1-0.2-0.2-0.4-0.3-0.6    c-0.1-0.1-0.1-0.2-0.2-0.3c-0.3-0.4-0.5-0.8-0.9-1.2c-0.1-0.1-0.1-0.1-0.2-0.2c-0.2-0.2-0.3-0.3-0.5-0.4c-0.1,0-0.2-0.1-0.2-0.1    c-0.2-0.1-0.4-0.2-0.6-0.3c0,0,0,0,0,0c-0.1,0-0.2-0.1-0.3-0.1c-0.2-0.1-0.5-0.1-0.7-0.1c-0.2,0-1,0-0.3,0c-0.3,0-0.6,0-0.9,0    c-0.1,0-0.2,0-0.3,0c-1.2,0.6-2.4,1.3-3.6,1.9c1.1,6.2-1.4,10.9-6.2,14.4c-0.6,0.4-1.3,0.9-1.9,1.3    C277,230.2,277.1,230.2,277.1,230.2z"></path>
		<g>
			<path class="st2" d="M272.1,221.1l-0.8-0.6c-0.8,0.3-1.7,0.6-2.5,0.9c-2,0.6-4,1.2-5.9,1.7c-2,0.6-4,1.1-6,1.3     c-0.2,0-0.4,0-0.5-0.1c-0.4,0.4-0.8,0.9-1.2,1.2c-1.2,1.1-2.6,2.1-4.1,2.5c-0.2,0.1-0.5,0.1-0.8,0.2c0.8,0.7,1.7,1.2,2.5,1.7     c0.9,0.4,1.7,0.8,2.6,1.1c1.1,0.3,2.3,0.6,3.4,0.8c0.1,0,0.2,0,0.2,0c2.8,0,5.5,0.1,8.2-0.1c1.8-1.3,3-3.7,4.1-6     C272.1,224.4,272.8,222.6,272.1,221.1z"></path>
		</g>
	</g>
	<g>
		<path class="st2" d="M293,165.6c6.6,5.7,13.5,11.2,19.7,17.2c7,6.8,7.7,15.7,2.2,23.5c-2.7-2.6-5.4-5.1-8-7.6    c-0.7-1.2-1.3-2.4-2.2-3.5c-3.2-3.8-6.8-7.3-9.7-11.3C291,178.4,290,172.2,293,165.6z"></path>
		<path class="st3" d="M304.7,195.2c-3.2-3.8-6.8-7.3-9.7-11.3c-4-5.5-5.1-11.7-2-18.4c-1.1-1.1-2.2-2.2-3.3-3.3    c-0.1,0-0.2-0.1-0.3-0.1c-0.3-0.1-0.6-0.2-0.9-0.3c0.7,0.2-0.1,0-0.3,0c-0.3,0-0.6-0.1-0.8-0.1c-0.1,0-0.2,0-0.3,0c0,0,0,0,0,0    c-0.2,0-0.4,0.1-0.7,0.1c-0.1,0-0.2,0.1-0.3,0.1c-0.2,0.1-0.5,0.2-0.7,0.3c-0.1,0-0.2,0.1-0.3,0.2c-0.5,0.4-0.9,0.7-1.3,1.1    c-0.1,0.1-0.2,0.2-0.3,0.3c-0.2,0.2-0.3,0.4-0.5,0.6c-2,5.4-0.9,10.5,3.8,15.7c6.1,6.7,13.4,12.5,20.2,18.6    C306.2,197.5,305.6,196.3,304.7,195.2z"></path>
	</g>
	<g>
		<path class="st2" d="M313.4,170.8c-0.9-2.6-2.7-4.9-4.5-7c-0.7-0.8-1.4-1.6-2.1-2.3c-0.4-0.1-0.8-0.2-1.1-0.6    c-6.2-6-14.4-9.4-22.8-9.8c-0.5,3.8,0.2,7.1,1.8,9.8c0.9-0.5,1.8-0.7,2.9-0.6c1.4,0.1,2.7,0.9,3.8,1.9c0.3,0.2,0.6,0.4,0.9,0.6    c0.6,0.5,1.1,1.1,1.6,1.8c0.5,0.4,1,0.7,1.5,1c3.3,2.3,6.4,4.9,9.5,7.4c2.5,2,5,4,7.3,6.3c0.7-1.4,1.2-2.7,1.6-4.1    C314,173.8,313.9,172.3,313.4,170.8z"></path>
		<path class="st3" d="M284.8,160.9C284.8,160.9,284.8,160.9,284.8,160.9c-1.6-2.8-2.3-6.1-1.8-9.9c-2.4-0.1-4.8,0-7.2,0.5    c-0.2,0.1-0.3,0.3-0.5,0.4c-0.5,0.8-0.9,1.7-1.2,2.6c-0.3,0.9-0.3,1.7-0.1,2.6c0.2,0.8,0.6,1.6,1.3,2.3c0.5,0.6,1.1,1.1,1.7,1.6    c0.1,0,0.3,0,0.4,0c1.3,0.3,2.7,0.8,4,1.2C282.2,161.5,283.5,161.1,284.8,160.9z"></path>
	</g>
	<g>
		<path class="st2" d="M283.1,149.4c2.7,0.1,5.2,0.5,7.7,1.5c0.4,0.1,0.7,0.3,1,0.5c5.5,1.5,10.9,4.2,15.4,7.8    c-0.4-1.5-0.8-2.9-1.4-4.3c-0.9-2.2-2.5-4-4.1-5.8c-3.1-3.2-6.8-5.9-11-7.4c-3.9-1.4-8.1-1.9-12.1-0.9c-1.3,0.3-2.4,0.7-3.6,1.3    c0.5,3,1.8,5.4,3.5,7.3C280.1,149.3,281.6,149.3,283.1,149.4z"></path>
		<path class="st3" d="M272.8,151.7c1.6-1.5,3.6-2.1,5.8-2.3c-1.8-2-3-4.4-3.5-7.3c-2.6,1.2-4.9,3.1-6.9,5.3c0,0.1,0,0.1,0,0.2    c0.1,0.4,0.2,0.8,0.3,1.1c-0.1-0.1-0.1-0.2-0.2-0.4c0.2,0.5,0.3,1,0.2,1.6c0,0,0,0,0,0.1c0.2,0.2,0.4,0.4,0.7,0.6    c0.7,0.5,1.3,0.8,2,1.1c0.1,0,0.2-0.1,0.4-0.1C272,151.6,272.4,151.7,272.8,151.7z"></path>
	</g>
	<g>
		<path class="st2" d="M228.2,254.2c-0.5-0.1-0.9-0.3-1.4-0.4c-3.6-1.3-6.7-4.1-8.7-7.3c-1.5-2.4-2.5-4.9-2.7-7.7    c-0.1-1.2-0.1-2.4,0-3.7c-0.1-0.1-0.1-0.2-0.2-0.3c-0.8-1.6-1.6-3.1-2.3-4.7c-0.7,2.2-1.5,4.4-2.2,6.6c0.1,0.3,0.1,0.6,0,0.8    c-0.2,0.3-0.3,0.6-0.4,0.9c-0.2,0.7-0.3,1.4-0.4,2.1c0.8,3.2,2.7,7,1.2,10.1c1.9,4.3,4.3,8.3,7.3,12.1c0.3,0.3,0.6,0.5,1,0.8    c1.6,1.1,3.4,1.9,5.3,2.5c3.1-3.9,4.3-7.8,3.9-11.7C228.3,254.2,228.2,254.2,228.2,254.2z"></path>
		<path class="st3" d="M236.5,259.6c-0.2-0.8-0.5-1.5-0.9-2.1c-0.1-0.1-0.2-0.1-0.3-0.2c-1.1-0.9-2.1-1.8-3.1-2.8    c-1.3,0.3-2.6,0.2-3.8-0.3c0.4,3.9-0.8,7.8-3.9,11.7c0.4,0.1,0.8,0.3,1.2,0.4c1.2,0.3,2.4,0.7,3.7,0.7c0.4,0,0.8,0,1.2,0    c0.1,0,0.2,0,0.3-0.1c0.5-0.1,0.9-0.2,1.4-0.3c0.4-0.1,0.7-0.2,1-0.3c0.8-0.5,1.5-1.1,2.2-1.9c0.6-0.7,1-1.4,1.2-2.3    C236.8,261.4,236.8,260.6,236.5,259.6z"></path>
	</g>
	<g>
		<path class="st2" d="M294.4,224c-1.8,2.8-6,4.3-8.9,5.4c-3.6,1.3-7.2,2.3-10.9,3.4c-2.9,0.9-5.8,1.8-8.8,2.3    c0.8,1.3,1.6,2.5,2.4,3.6c1.1,1,2.3,1.8,3.8,2.2c2.6,0.8,5.3,0.7,7.9,0.4c7.9-0.8,15.4-3,22.3-7c0.8-0.6,1.4-1.3,2-2    c0.2-0.2,0.6-0.8,1.1-1.6c0.2-0.3,0.3-0.6,0.4-0.8c-0.8-1.2-2.6-3.1-5.3-4.7c-1.8-1.1-3.7-1.6-5.7-1.8    C294.7,223.6,294.6,223.8,294.4,224z"></path>
		<path class="st3" d="M295.5,219.7c0.1,1.3-0.2,2.6-0.8,3.7c3.9,0.3,7.6,2.3,11,6.5c0.3-0.7,0.6-1.4,0.9-2.2    c0.3-1.1,0.5-2.2,0.6-3.4c0-0.1,0-0.2,0-0.2c0-0.3,0-0.5,0-0.8c0-0.5-0.1-1-0.1-1.4c0-0.4-0.1-0.7-0.1-1.1    c-0.4-0.9-0.9-1.7-1.5-2.5c-0.6-0.7-1.2-1.2-2-1.6c-0.8-0.3-1.6-0.4-2.5-0.3c-0.8,0.1-1.5,0.3-2.1,0.5c-0.1,0.1-0.1,0.2-0.2,0.3    C297.6,218.1,296.6,218.9,295.5,219.7z"></path>
	</g>
	<g>
		<path class="st3" d="M315.5,217c-0.1-1-0.4-1.9-0.9-2.7c0-0.1-0.1-0.1-0.1-0.1c-0.1-0.2-0.2-0.4-0.3-0.5c-0.2-0.3-0.4-0.6-0.6-0.9    c-0.2-0.2-0.3-0.4-0.5-0.7c-0.6-0.4-1.3-0.7-2-0.9c-0.7-0.2-1.3-0.2-2,0c-0.7,0.2-1.3,0.6-2,1.1c-0.5,0.5-1,1-1.4,1.5    c0,0.1,0,0.2-0.1,0.3c-0.2,0.5-0.4,0.9-0.5,1.4c0.9,0.5,1.5,1.2,2,2c0.4,0.5,0.7,1.1,0.9,1.7c2.3-0.8,4.9-0.9,7.7-0.1    C315.6,218.4,315.6,217.7,315.5,217z"></path>
		<g>
			<path class="st2" d="M317.6,221.8c-0.4-1.4-1-2.8-2.2-3.7c-1.9-1.5-4.7-1-7-0.4c-0.3,0.1-0.7,0.2-1,0.3c1.7,2.9,1.9,6.9,0.9,10.2     c-0.1,0.8-0.2,1.5-0.5,2.2c-0.2,0.4-0.4,0.8-0.7,1.2c-1.3,2.7-3.3,5.2-5.5,7.2c-2.6,2.3-5.6,4.4-8.9,5.4c0.1,0.4,0.4,0.7,0.7,1     c0.7,0.6,1.7,0.8,2.7,0.9c6.4,0.8,13.1-1.6,17.4-6.3C317.7,235,319.4,227.9,317.6,221.8z"></path>
		</g>
	</g>
	<g>
		<g>
			<path class="st2" d="M310.3,248.5c-2.1-2.2-5.8-1.9-8.4-0.3c-0.9,0.5-1.6,1.1-2.4,1.8c0,0.9-0.3,1.8-0.9,2.6     c-1,1.5-2.5,2.7-4.2,3.6c-3.1,2.1-6.5,3.7-10.1,4.7c-2.8,0.8-5.7,1.6-8.6,2.1c-1.7,0.4-3.5,0.6-5.3,0.6c0.4,0.2,0.7,0.5,1.1,0.7     c0.2-0.1,0.5-0.1,0.8,0.1c1,0.7,2.3,0.5,3.4,0.6c1.5,0.2,3,0.8,4.4,1.3c1.6,0.6,3,1.5,4.4,2.4c2.2,0.7,4.3,1.4,6.5,2.1     c2.8,0.1,5.7-0.4,8.4-1.4c1.7-0.6,3.3-1.7,4.7-2.9c0.8-0.9,1.6-1.8,2.4-2.8c2.4-3,4.8-6.5,5.1-10.4     C311.8,251.7,311.4,249.8,310.3,248.5z"></path>
		</g>
		<path class="st2" d="M277.3,249.5c-3.8,0-7.6,0.4-11.5,0.8c-2.9,0.6-5.9,1.1-8.8,1.5c-2.7,0.3-5.5,1-8.2,0.9    c2.2,7.4,8.8,11.3,17.9,9.9c6-0.9,12-2.2,18-3.5c0.3-0.2,0.6-0.3,0.9-0.5c1.7-0.9,3.4-1.7,5.1-2.5    C287.9,251.5,283.2,249.5,277.3,249.5z"></path>
		<path class="st3" d="M297.5,250.5c0-0.1,0-0.3,0-0.4c0-0.1,0-0.1,0-0.1c0-0.2-0.1-0.3-0.2-0.5c0,0,0,0,0-0.1c0,0,0-0.1-0.1-0.1    c-0.1-0.2-0.2-0.5-0.2-0.7c-2.6-2.5-6.4-3.5-11.6-3c-0.3,0-0.5,0.1-0.8,0.1c-2.2,0.4-4.3,1-6.5,1.5c-3.5,0.8-7,1.8-10.6,2.6    c-0.6,0.1-1.2,0.3-1.7,0.4c3.8-0.3,7.7-0.8,11.5-0.8c5.9,0,10.6,2.1,13.4,6.6c1.4-0.7,2.8-1.4,4.2-2.2c0.2-0.1,0.3-0.2,0.5-0.3    c0.1,0,0.1-0.1,0.2-0.1c0.3-0.2,0.5-0.4,0.8-0.7c0.1-0.1,0.3-0.3,0.4-0.4c0,0,0.1-0.1,0.1-0.1c0,0,0-0.1,0.1-0.1    c0.1-0.2,0.3-0.4,0.4-0.6c0,0,0,0,0-0.1c0,0,0,0,0,0c0-0.1,0.1-0.2,0.1-0.4c0-0.1,0-0.1,0.1-0.2c0,0,0,0,0,0    C297.6,250.6,297.5,250.5,297.5,250.5z"></path>
		<path class="st3" d="M312.6,251.8c-0.1-1.1-0.3-2.3-0.7-3.2c-0.8-1.7-2.4-2.3-4.2-2.4c-2.1-0.1-4.1,0.4-6.2,1    c-0.7,0.6-1.4,1.4-2,2.2c0.1,1.1-0.2,2.2-0.9,3.3c-0.4,0.6-0.9,1.1-1.4,1.6c2.5-0.1,4.9-0.1,7.4,0.1c0.4,0,0.9,0.1,1.3,0.1    c1.3-0.2,2.7-0.1,4.1,0.1c0.2,0,0.3,0,0.5,0c0.6,0,1.1-0.1,1.7-0.3c0.2-0.7,0.3-1.4,0.5-2.1C312.6,252,312.6,251.9,312.6,251.8z"></path>
		<path class="st2" d="M300.3,269.2c1.6-0.8,3.2-1.8,4.6-2.9c2-1.6,3.4-3.7,4.6-6c1-1.9,2-5.1-0.2-6.6c-1.6-1.1-4.3-0.1-5.9,0.3    c-3,0.8-6,1.7-9.1,2.2c-2.1,1.3-4.3,2.3-6.5,3.2c-5.3,2.3-11,3.7-16.8,4.5c5.3,8.4,15.1,11,26.5,6.4    C298.5,270,299.4,269.6,300.3,269.2z"></path>
	</g>
	<g>
		<path class="st2" d="M319.7,249.4c-0.3-1.8-0.9-3.6-2-5.1c-1-1.2-2.4-2.2-3.9-2.4c-1.2,0.2-2.2,1.3-2.4,2.5c1,1.1,1.6,2.5,2,4    c1.9,3.4,0.7,7.9-1.5,11.4c-1.7,3.4-4.4,6.4-7.5,8.6c-2.5,1.8-5.6,3.1-8.7,3.7c0.1,0.2,0.2,0.5,0.4,0.6c0.6,0.4,1.3,0.5,2,0.6    c6.1,0.4,12.4-2.2,16.5-6.7C318.8,262,320.7,255.5,319.7,249.4z"></path>
	</g>
	<g>
		<path class="st2" d="M269,207.4c-0.8,1.3-1.9,2.4-3,3.4c-1.6,1.4-3.3,2.7-5,4c-0.1,0.6-0.2,1.2-0.4,1.8c-0.3,0.9-0.6,1.7-1.1,2.5    c-0.1,0.4-0.3,0.9-0.4,1.3c-0.2,0.5-0.4,0.9-0.6,1.4c0,0,0,0,0,0c1.5-0.6,3-1.1,4.5-1.8c5.4-2.5,8.6-6.8,8.7-13    C270.8,207,269.9,207.2,269,207.4z"></path>
		<path class="st3" d="M269.5,218.9c3.3-0.9,6.5-2,9.2-3.9c0.9-1.4,1.4-3,1.5-4.9c-0.1-0.2-0.1-0.5-0.2-0.7c0-0.1-0.1-0.2-0.1-0.3    c-0.2-0.5-0.4-0.9-0.6-1.4c-0.1-0.1-0.1-0.2-0.2-0.2c-0.1-0.2-0.3-0.4-0.4-0.5c-0.1-0.1-0.1-0.1-0.2-0.2c-0.2-0.1-0.3-0.2-0.5-0.3    c0,0,0,0,0,0c-0.1,0-0.2-0.1-0.3-0.1c-0.2-0.1-0.5-0.2-0.7-0.3c-0.2-0.1-1-0.2-0.3-0.1c-0.3,0-0.6-0.1-0.9-0.2c-0.1,0-0.2,0-0.3,0    c-1.3,0.4-2.6,0.8-3.9,1.2c-0.1,6.2-3.4,10.5-8.7,13c-1.4,0.7-3,1.3-4.5,1.8C262.2,220.8,265.8,219.9,269.5,218.9z"></path>
	</g>
	<path class="st2" d="M319.6,222.6c0.5,4.5,0.3,9.7-1.3,14.2c4.4-4.4,6.5-11,5.4-17.2c-0.7-3.9-2.6-7.5-4.8-10.8   c-0.8-1.2-1.8-3.3-3.3-1.9c-0.8,0.8-1.1,2.2-1.1,3.5C317.7,213.5,319.1,218,319.6,222.6z"></path>
	<path class="st2" d="M270,199.4c-0.7,5.5-4.9,9.8-9.1,13.4c0.9-6.6,1.2-13.3,0.9-20c-0.1-1.8-1.6-6.7,1-6.1c2.1,0.5,4.2,3,5.3,4.8   C269.6,193.8,270.3,196.7,270,199.4z"></path>
	<path class="st2" d="M222,161.8c0.7-2.4,1.6-4.7,3-6.7c-1.5,0.3-3.5,1.4-4.2,1.9c-1.8,1.3-3.3,3-4.3,5c-1.9,3.6-2.5,7.7-3.1,11.7   c-0.1,0.5-0.1,1.1,0.1,1.6c0.4,0.7,1.3,0.9,2.1,0.7c1.5-0.3,2.7-1.3,3.7-2.7C219.2,169.3,220,165.2,222,161.8z"></path>
	<path class="st2" d="M232.8,164.4c0.3-0.6,0.7-1.3,1-1.9c1.3-2.2,2.8-4.3,4.4-6.2c2.5-2.8,5.5-5.3,9-6.6c-1.7-1.2-5.9-1.1-7.5-1   c-2.9,0.3-5.8,1.3-8.2,2.9c-4.8,3.3-7.8,9-8.1,14.8c0,0.1,0,0.3,0.1,0.4c0.1,0.1,0.2,0.1,0.3,0.2c2.6,1,5.6,0,7.8-1.6   C232.1,165.1,232.4,164.7,232.8,164.4z"></path>
	<path class="st2" d="M247.4,162.7c2.3-2,5-3.4,7.9-4.2c1.5-0.4,3-0.6,4.6-0.7c0.6-0.1,1.2-0.2,1.9-0.2c1.9,0,3.8,0.2,5.6,0.5   c1.8,0.2,3.5,0.6,5.3,0.9c-0.2-0.6-0.4-1.2-0.5-1.9c0-0.1,0-0.2,0-0.4c-1.6-1.8-3.4-3.5-5.5-4.7c-4.8-2.8-10.7-3-16-1.3   c-5.2,1.7-9.7,5.3-13.1,9.7c-0.7,0.9-1.4,2-1.3,3.1c0.2,1.6,2.1,2.5,3.8,2.5c1.9,0.1,3.6-0.5,5.3-1.3   C245.9,164.1,246.6,163.4,247.4,162.7z"></path>
	<path class="st2" d="M255.8,160c1.4-0.7,3-0.7,4.6-0.7c3.5,0.1,7.1,0.6,10.5,1.6c2,0.6,4.1,1.4,5.8,2.6c1.7,1.3,3.1,3.1,3.5,5.1   c0.2,1.2,0.1,2.5,0.3,3.8c0.6,4,4,6.9,7.2,9.4c-1.3,0.2-2.5-0.4-3.6-1.1c-4.1-2.5-7.9-5.6-12.4-7.4c-5.1-1.9-10.7-1.9-16.1-2.8   c-2.2-0.4-6.5-1.4-6.2-4.5C249.7,164,253.8,160.9,255.8,160z"></path>
	<path class="st2" d="M292.2,200.6c0.4-0.3,0.5-0.6,0.7-1c0.4-0.8,0.5-2,0.6-3c0-0.2,0-0.4,0-0.6c-0.1-0.4-0.2-0.8-0.3-1   c-1.3-4.1-3.6-7.8-6.6-10.9c-2.5-0.9-4.6-2.2-6.7-3.8c-2.5-1.8-5.1-3.4-7.9-4.6c-0.4-0.2-0.7-0.3-1.1-0.4c-4-1.3-8.4-1.8-12.3-0.3   c0.1,0.5,0.4,0.9,0.8,1.2c7.4,8.3,16.4,15.3,26.3,20.3c1.3,0.7,2.6,1.3,3.8,2c0.6,0.4,1.7,1.6,2.6,2   C292,200.7,292.1,200.7,292.2,200.6z"></path>
	<path class="st2" d="M291,205.6c-0.2-0.3-0.5-0.5-0.7-0.8c-0.2-0.3-0.5-0.5-0.7-0.7c0,0,0-0.1-0.1-0.1c-1.5-1.6-3-3.1-4.5-4.6   c-3.9-3-8.5-5.1-12.2-8.3c0,0-0.1,0-0.1,0c0,1.3-0.1,2.5-0.1,3.8c-0.1,1.8-0.1,3.7,0.5,5.4c0.5,1.6,1.5,2.9,2.7,4.1   c0.4,0,0.9-0.1,1.3,0c1.2,0.1,2.4,0.5,3.4,1.3c1.3,1.2,1.3,3.1,1.5,4.8c0.5,0.6,0.8,1.3,1.1,2c3.1-1.2,6.4-2.7,9.6-1.2   c1.9,0.9,2.4,2.8,2.4,4.6c0.1,0,0.1-0.1,0.2-0.1C295,211.9,293.4,208.5,291,205.6z"></path>
	<path class="st3" d="M268,187c2.3,0.5,4.2,1.6,6.1,2.9c-0.1-0.6-0.3-1.1-0.6-1.7c-0.9-1.9-2.6-3.6-4.7-3.9c-1.1-0.2-2.2,0-3.1-0.6   c-0.9-0.6-1.4-1.7-1.8-2.7c-1-2.6-2.7-5.3-5.2-6.4c0,0-0.1,0.1-0.1,0.1c-0.1,0.1-0.2,0.3-0.3,0.4c0,0.1-0.1,0.1-0.1,0.2   c0,0-0.1,0.1-0.1,0.1c-0.4,0.6-0.8,1.2-1.1,1.8c-0.4,0.8-0.8,1.5-1.3,2.3c0.5,0,0.9,0.1,1.4,0.2c1.8,0.5,3.3,1.7,4.2,3.3   c0.4,0.7,0.7,1.5,0.8,2.3c0.2,0,0.3,0.1,0.5,0.1c0.2,0,0.3-0.1,0.5-0.1c1-0.1,2,0.1,3,0.6c0.6,0.3,1.1,0.7,1.5,1.2   C267.7,187,267.8,187,268,187z"></path>
	<path class="st3" d="M269.8,189.4c0,0.1,0.1,0.1,0.1,0.2c1.1,1.9,1.5,4.1,1.6,6.3c0.1,1.6,0,3.1-0.3,4.6c-0.2,2-0.7,3.9-1.5,5.7   c2-0.7,3-2.9,3.6-4.9c0.7-2.2,1.1-4.5,1.2-6.8c0-0.7,0-1.5,0-2.2C273,191.1,271.5,190.1,269.8,189.4z"></path>
	<path class="st3" d="M247.5,166c-1.1,1.1-2.3,2.6-1.9,4.1c0.4,1.6,2.2,2.4,3.9,2.5c2.3,0.2,4.5-0.3,6.8-0.6   c7.5-0.9,15.3,0.7,21.8,4.5c-6-3.8-12.9-5.9-20-6.1c-2.5-0.1-5.4-0.1-6.7-2.2c-1-1.6-0.3-3.3-0.3-5   C249.8,163.6,248.4,165.1,247.5,166z"></path>
	<path class="st3" d="M245.8,164.2c-1.7,0.7-3.6,1.1-5.5,1.1c-0.6,0-1.3,0-1.9-0.3c-0.9-0.5-1.3-1.5-1.4-2.5c0-0.7,0.1-1.4,0.3-2.1   c-1.7,2.3-3.2,4.8-4.3,7.5c0,0.1,0,0.1-0.1,0.2c1.3-0.3,2.6-0.4,3.8-0.4c2.1-0.1,4.7,0.1,6.6,1.3   C243.8,167.1,244.6,165.6,245.8,164.2z"></path>
	<path class="st3" d="M231.6,168.4c0.1-0.8,0.3-1.6,0.5-2.3c0.3-0.8,0.6-1.6,1-2.3c-0.6,0.7-1.3,1.4-2.1,1.9c-1,0.7-2.2,1.1-3.3,1.3   c-2.1,0.4-3.1-0.3-4.7-1.4c-1.1,2.6-1.3,6.1-1.8,8.9c-0.1,0.4-0.1,1,0.3,1.2c1.1-0.1,1.5-1.5,2.2-2.4c0.4-0.4,1-0.7,1.5-0.9   c1.7-1.9,3.9-3.3,6.1-4C231.5,168.4,231.5,168.4,231.6,168.4z"></path>
	<path class="st3" d="M219.2,172.1c-0.5,0.7-1,1.3-1.6,1.8c-0.8,0.6-1.8,1-2.8,0.8c-0.7-0.1-1.4-0.6-1.7-1.3   c-0.3,1.1-0.5,2.4-0.7,3.5c-0.1,0.8-0.3,1.6-0.1,2.4c1.2,0,2-1.3,3.2-1.7c1.3-0.5,2.9,0.2,3.9-0.7c0,0,0,0,0,0   C219.2,175.3,219.2,173.7,219.2,172.1z"></path>
	<path class="st2" d="M309.3,203.9c-0.9-0.8-1.6-1.7-2.5-2.6c-0.2-0.2-0.5-0.5-0.7-0.7c-1.3-1-2.7-2.1-4-3.1c-1.9-1.5-3.7-3-5.3-4.8   c-0.4-0.4-0.8-0.8-1.1-1.2c0.5,0.9,0.9,1.9,1.2,2.9c0.7,2.8,0.1,5.7,0.1,8.6c0.8,0.9,1.5,1.8,2.2,2.7c1.7,1.3,3.3,2.7,4.7,4.3   c0.4,0.3,0.8,0.6,1.2,1c1.1-1.3,2.8-2.3,4.4-2.6c0.7-0.1,1.4-0.1,2.1,0.1c0.1-0.4,0.2-0.8,0.3-1.2c0-0.1,0.1-0.2,0.2-0.4   c-0.6-0.7-1.2-1.4-1.8-2.2C309.9,204.4,309.6,204.2,309.3,203.9z"></path>
	<path class="st2" d="M301,210.6c-0.4-0.3-0.7-0.5-1.1-0.8c-2.2-1.7-4.3-3.5-6-5.8c-0.3-0.4-1-0.9-1.3-0.5c-0.1,0.1-0.1,0.4-0.1,0.5   c1,1.4,1.8,2.9,2.6,4.5c2,1.8,3.1,4.4,3.2,7.1c1.6-0.7,3.5-0.9,5.1-0.5c0.1-0.6,0.3-1.2,0.5-1.8C302.8,212.5,301.9,211.6,301,210.6   z"></path>
	<path class="st2" d="M300.2,237.9c1-0.6,1.7-1.7,2.5-2.5c0.9-0.8,1.6-1.8,2.2-2.8c0.7-1.2,1.3-2.5,1.7-3.8c-1-1.2-2.5-2-4-2.6   c-1.7-0.7-3.4-1.2-5-2c-1.5,0.4-2.9,0.8-4.4,1.2c-0.4,0.4-0.9,0.9-1.4,1.2c-1,0.6-2.1,1.2-3.2,1.6c-0.7,0.3-1.3,0.5-2,0.7   c-1.3,0.7-2.5,1.3-3.9,1.9c-2.1,0.9-4.3,1.3-6.5,1.7c-3.7,1.2-7.5,2.1-11.4,2.7c6,9.1,16.7,11.7,28.8,6.4c1-0.4,2-0.9,2.9-1.3   c1.1-0.6,2.3-1.3,3.3-2.1C300,238.1,300.1,238,300.2,237.9z"></path>
	<path class="st2" d="M190.2,223.4c0,0.1,0,0.2,0.1,0.3c0.6,2.3,1.5,4.5,2.6,6.7c0,0,0,0,0,0c-1.2-2.8-2.1-5.6-2.9-8.5   C190.1,222.4,190.2,222.9,190.2,223.4z"></path>
	<path class="st2" d="M190,246.5c0.9,0.9,1.9,1.7,3,2.5c4.5,2.3,10,2.8,14.9,1.6c0.1-0.2,0.1-0.3,0.2-0.5c0.2-0.6,0.3-1.2,0.4-1.9   c0-0.1,0-0.1,0-0.1c0-0.1,0-0.1,0-0.2c0-0.1,0-0.2,0-0.2c-0.4-1.1-1.2-2.1-1.7-2.9c-0.1-0.1-0.2-0.2-0.2-0.4c-3-0.4-6-1.2-8.6-2.8   c-2.5-1.5-4.5-3.7-6.1-6.2c-2.9-4.8-4.2-10.3-5.5-15.7c-6,7.2-5.7,16.2,1.6,24.6C188.7,245.1,189.4,245.8,190,246.5z"></path>
	<path class="st2" d="M197.4,238.2c0.7,0.5,1.5,1,2.3,1.4c-0.3-0.3-0.5-0.6-0.8-0.8c-0.6-0.4-1.2-0.7-1.7-1.2c-1.2-1-2.3-2-3.3-3.1   C194.9,235.8,196,237.1,197.4,238.2z"></path>
	<path class="st2" d="M202.9,224.9c-0.7-2.9-1.2-5.8-1.4-8.8c0-0.1,0-0.1,0-0.2c-0.2-2-0.3-4-0.2-6.1c-0.5-0.2-0.8-0.7-0.8-1.3   c0.1-2.9,0.1-5.8,0.5-8.7c0.2-1.1,0.5-2.1,0.8-3.2c-9.1,3.2-14,11.5-12.6,23.2c0.1,1,0.3,2.1,0.4,3.1c0.4,1.9,1,3.8,1.8,5.6   c1.2,2.5,3.1,4.8,5.2,6.8c1.8,1.7,5,3.8,7.4,2.2c0.9-0.6,1.3-1.8,1.4-3c-0.8-1.3-1.1-2.8-1.4-4.3   C203.8,228.4,203.3,226.6,202.9,224.9z"></path>
</g>
<path class="st0" d="M-67.4-8.6v519.4h591.6V-8.6H-67.4z M486.1,402.8L256.7,503v0.5L27.1,403.2V110.6l228.2-98.7v-0.1c0,0,0,0,0,0  c0.2-0.1,0.4-0.1,0.6-0.2c0.5-0.1,0.9-0.3,1.3-0.5c0.1,0.1,0.3,0.1,0.5,0.1c0.1,0.1,0.2,0.2,0.3,0.2v0l228.2,98.7V402.8z"></path>
<path class="st2" d="M249,231.6c-0.4-0.2-1-0.5-1.4-0.2c-0.4,0.2-0.5,0.7-0.5,1.2c0,0.6-0.1,1.1-0.1,1.7c0,0.1,0,0.2,0.1,0.3  c0.1,0.1,0.3,0.1,0.4,0.1c2.2,0,4.4-0.3,6.5-1C253.4,232.6,250.1,232.2,249,231.6z"></path>
</svg>